SplineFontDB: 3.2
FontName: EstamateSansThin
FullName: Estamate Sans Thin
FamilyName: Estamate Sans
Weight: Thin
Copyright: Copyright (c) 2022, Marco G Mahone
UComments: "2022-6-19: Created with FontForge (http://fontforge.org)"
Version: 001.000
ItalicAngle: 0
UnderlinePosition: -100
UnderlineWidth: 50
Ascent: 800
Descent: 200
InvalidEm: 0
LayerCount: 2
Layer: 0 0 "Back" 1
Layer: 1 0 "Fore" 0
XUID: [1021 174 643576185 28751]
StyleMap: 0x0000
FSType: 0
OS2Version: 0
OS2_WeightWidthSlopeOnly: 0
OS2_UseTypoMetrics: 1
CreationTime: 1655693736
ModificationTime: 1666409297
PfmFamily: 17
TTFWeight: 100
TTFWidth: 5
LineGap: 90
VLineGap: 0
OS2TypoAscent: 0
OS2TypoAOffset: 1
OS2TypoDescent: 0
OS2TypoDOffset: 1
OS2TypoLinegap: 90
OS2WinAscent: 0
OS2WinAOffset: 1
OS2WinDescent: 0
OS2WinDOffset: 1
HheadAscent: 0
HheadAOffset: 1
HheadDescent: 0
HheadDOffset: 1
OS2Vendor: 'PfEd'
Lookup: 1 0 0 "'salt' Stylistic Alternatives in Latin lookup 0" { "'salt' Stylistic Alternatives in Latin lookup 0-1" ("salt") } ['salt' ('latn' <'dflt' > ) ]
MarkAttachClasses: 1
DEI: 91125

StartChar: O
Encoding: 79 79 0
Width: 737
Flags: HW
LayerCount: 2
Fore
SplineSet
687.903320312 399 m 1
 687.903320312 268 l 1
 673.928710938 234 l 1
 670.903320312 188 l 1
 670.903320312 479 l 1
 676.278320312 429 l 1
 687.903320312 399 l 1
49.9033203125 399 m 1
 65.7529296875 443 l 1
 66.9033203125 479 l 1
 66.9033203125 188 l 1
 63.4033203125 228 l 1
 49.9033203125 268 l 1
 49.9033203125 399 l 1
69.2900390625 332.903320312 m 4
 69.2900390625 150.560546875 192.450195312 23.2900390625 368.903320312 23.2900390625 c 0
 545.356445312 23.2900390625 668.516601562 150.560546875 668.516601562 332.903320312 c 0
 668.516601562 515.247070312 545.357421875 642.516601562 368.903320312 642.516601562 c 0
 192.44921875 642.516601562 69.2900390625 515.247070312 69.2900390625 332.903320312 c 4
36 332.903320312 m 4
 36 535.172851562 172.532226562 675.806640625 368.903320312 675.806640625 c 0
 565.274414062 675.806640625 701.806640625 535.172851562 701.806640625 332.903320312 c 0
 701.806640625 130.634765625 565.2734375 -10 368.903320312 -10 c 0
 172.533203125 -10 36 130.634765625 36 332.903320312 c 4
EndSplineSet
EndChar

StartChar: E
Encoding: 69 69 1
Width: 499
Flags: HW
LayerCount: 2
Fore
SplineSet
458 0 m 1
 51 0 l 1
 51 33.2900390625 l 1
 458 33.2900390625 l 1
 458 0 l 1
348 302.709960938 m 1
 51 302.709960938 l 1
 51 336 l 1
 348 336 l 1
 348 302.709960938 l 1
458 632.709960938 m 1
 51 632.709960938 l 1
 51 666 l 1
 458 666 l 1
 458 632.709960938 l 1
41 0 m 1
 41 666 l 1
 74.2890625 666 l 1
 74.2890625 0 l 1
 41 0 l 1
EndSplineSet
EndChar

StartChar: C
Encoding: 67 67 2
Width: 656
Flags: HW
LayerCount: 2
Fore
SplineSet
49.9033203125 399 m 1
 65.7529296875 443 l 1
 66.9033203125 479 l 1
 66.9033203125 188 l 1
 63.4033203125 228 l 1
 49.9033203125 268 l 1
 49.9033203125 399 l 1
36 332.903320312 m 0
 36 535.172851562 172.532226562 675.806640625 368.903320312 675.806640625 c 0
 469.08203125 675.806640625 555.181640625 641.921875 615.129882812 578.903320312 c 1
 588.603515625 557.283203125 l 1
 534.716796875 612.748046875 457.985351562 642.516601562 368.903320312 642.516601562 c 0
 192.44921875 642.516601562 69.2900390625 515.247070312 69.2900390625 332.903320312 c 0
 69.2900390625 150.560546875 192.450195312 23.2900390625 368.903320312 23.2900390625 c 4
 455.838867188 23.2900390625 531.049804688 51.63671875 584.752929688 104.642578125 c 5
 610.4453125 82.091796875 l 5
 550.684570312 22.1181640625 466.444335938 -10 368.903320312 -10 c 4
 172.533203125 -10 36 130.634765625 36 332.903320312 c 0
EndSplineSet
EndChar

StartChar: Q
Encoding: 81 81 3
Width: 737
Flags: HW
LayerCount: 2
Fore
SplineSet
354.78125 138.826171875 m 1
 388.87890625 132.079101562 l 1
 360.276367188 -49.9736328125 427.123046875 -120.78125 601.3828125 -93.017578125 c 1
 603.456054688 -124.63671875 l 1
 412.881835938 -159.48046875 322.532226562 -63.7587890625 354.78125 138.826171875 c 1
687.903320312 399 m 1
 687.903320312 268 l 1
 673.928710938 234 l 1
 670.903320312 188 l 1
 670.903320312 479 l 1
 676.278320312 429 l 1
 687.903320312 399 l 1
49.9033203125 399 m 1
 65.7529296875 443 l 1
 66.9033203125 479 l 1
 66.9033203125 188 l 1
 63.4033203125 228 l 1
 49.9033203125 268 l 1
 49.9033203125 399 l 1
69.2900390625 332.903320312 m 0
 69.2900390625 150.560546875 192.450195312 23.2900390625 368.903320312 23.2900390625 c 0
 545.356445312 23.2900390625 668.516601562 150.560546875 668.516601562 332.903320312 c 0
 668.516601562 515.247070312 545.357421875 642.516601562 368.903320312 642.516601562 c 4
 192.44921875 642.516601562 69.2900390625 515.247070312 69.2900390625 332.903320312 c 0
36 332.903320312 m 0
 36 535.172851562 172.532226562 675.806640625 368.903320312 675.806640625 c 4
 565.274414062 675.806640625 701.806640625 535.172851562 701.806640625 332.903320312 c 0
 701.806640625 130.634765625 565.2734375 -10 368.903320312 -10 c 0
 172.533203125 -10 36 130.634765625 36 332.903320312 c 0
EndSplineSet
EndChar

StartChar: G
Encoding: 71 71 4
Width: 782
Flags: HW
LayerCount: 2
Fore
SplineSet
618.516601562 332.903320312 m 1
 651.805664062 332.903320312 l 1
 651.805664062 -0.0966796875 l 1
 623.516601562 -0.0966796875 l 1
 618.516601562 332.903320312 l 1
608.516601562 332.903320312 m 1
 631.806640625 332.903320312 l 1
 663.172851562 124.563476562 560.002929688 -10 368.903320312 -10 c 0
 172.533203125 -10 36 130.634765625 36 332.903320312 c 0
 36 535.669921875 172.049804688 675.806640625 368.903320312 675.806640625 c 0
 469.08203125 675.806640625 555.181640625 641.921875 615.129882812 578.903320312 c 1
 588.603515625 557.283203125 l 1
 534.716796875 612.748046875 457.985351562 642.516601562 368.903320312 642.516601562 c 0
 191.967773438 642.516601562 69.2900390625 515.744140625 69.2900390625 332.903320312 c 0
 69.2900390625 150.560546875 192.450195312 23.2900390625 368.903320312 23.2900390625 c 0
 543.00390625 23.2900390625 639.459960938 147.924804688 608.516601562 332.903320312 c 1
741.806640625 332.903320312 m 5
 741.806640625 299.61328125 l 5
 442.806640625 299.61328125 l 5
 442.806640625 332.903320312 l 5
 741.806640625 332.903320312 l 5
49.9033203125 399 m 1
 65.7529296875 443 l 1
 66.9033203125 479 l 1
 66.9033203125 188 l 1
 63.4033203125 228 l 1
 49.9033203125 268 l 1
 49.9033203125 399 l 1
EndSplineSet
EndChar

StartChar: I
Encoding: 73 73 5
Width: 115
Flags: HW
LayerCount: 2
Fore
SplineSet
41 666 m 5
 74.2890625 666 l 1
 74.2890625 0 l 1
 41 0 l 1
 41 666 l 5
EndSplineSet
EndChar

StartChar: J
Encoding: 74 74 6
Width: 495
Flags: HW
LayerCount: 2
Fore
SplineSet
231.689453125 23.2900390625 m 0
 378.863126341 23.2900390625 421.302734375 92.5882770956 421.302734375 332.903320312 c 1
 421.305664062 666 l 1
 454.591796875 666 l 1
 454.591796875 332.903320312 l 1
 454.59305265 76.663919923 398.257666769 -10 231.689453125 -10 c 0
 148.187999081 -10 69.2018413951 10.2046418232 41 38.7783203125 c 1
 57.7783203125 67.6435546875 l 1
 82.8063890944 41.6618667733 154.842738953 23.2900390625 231.689453125 23.2900390625 c 0
440.689453125 666 m 1
 440.689453125 268 l 1
 426.71484375 234 l 1
 423.689453125 188 l 1
 423.689453125 666 l 1
 440.689453125 666 l 1
EndSplineSet
EndChar

StartChar: D
Encoding: 68 68 7
Width: 622
Flags: HW
LayerCount: 2
Fore
SplineSet
41 666 m 1
 74.2890625 666 l 1
 74.2890625 0 l 1
 41 0 l 1
 41 666 l 1
572.903320312 399 m 5
 572.903320312 268 l 5
 558.928710938 234 l 5
 555.903320312 188 l 5
 555.903320312 479 l 5
 561.278320312 429 l 5
 572.903320312 399 l 5
253.903320312 33.2900390625 m 6
 433.243164062 33.2900390625 553.516601562 153.563476562 553.516601562 332.903320312 c 4
 553.516601562 512.244140625 433.244140625 632.516601562 253.903320312 632.516601562 c 6
 54.9033203125 632.516601562 l 1
 54.9033203125 665.806640625 l 1
 253.903320312 665.806640625 l 6
 453.170898438 665.806640625 586.806640625 532.170898438 586.806640625 332.903320312 c 4
 586.806640625 133.63671875 453.169921875 0 253.903320312 0 c 6
 54.9033203125 0 l 1
 54.9033203125 33.2900390625 l 1
 253.903320312 33.2900390625 l 6
EndSplineSet
EndChar

StartChar: P
Encoding: 80 80 8
Width: 572
Flags: HW
LayerCount: 2
Fore
SplineSet
522.903320312 512.801757812 m 5
 522.903320312 429.29296875 l 5
 508.928710938 407.619140625 l 5
 505.903320312 378.294921875 l 5
 505.903320312 563.80078125 l 5
 511.278320312 531.926757812 l 5
 522.903320312 512.801757812 l 5
41 666 m 1
 74.2890625 666 l 1
 74.2890625 0 l 1
 41 0 l 1
 41 666 l 1
213.903320312 293.290039062 m 6
 414.565040332 293.290039062 503.516601562 345.384908839 503.516601562 462.903320312 c 4
 503.516601562 585.768594231 423.694763936 632.516601562 213.903320312 632.516601562 c 6
 54.9033203125 632.516601562 l 1
 54.9033203125 665.806640625 l 1
 213.903320312 665.806640625 l 6
 441.143644016 665.806640625 536.806640625 605.694717266 536.806640625 462.903320312 c 4
 536.806640625 325.393856543 432.737898067 260 213.903320312 260 c 6
 54.9033203125 260 l 1
 54.9033203125 293.290039062 l 1
 213.903320312 293.290039062 l 6
EndSplineSet
EndChar

StartChar: R
Encoding: 82 82 9
Width: 562
Flags: HW
LayerCount: 2
Fore
SplineSet
212 301 m 5
 250.2890625 301 l 5
 386.903317085 140.789028532 441.265130275 80.5227487406 517.2890625 5 c 5
 481 -5 l 5
 379.533203125 93.3916015625 298.232421875 200.1015625 212 301 c 5
512.903320312 522.801757812 m 5
 512.903320312 439.29296875 l 5
 498.928710938 417.619140625 l 5
 495.903320312 388.294921875 l 5
 495.903320312 573.80078125 l 5
 501.278320312 541.926757812 l 5
 512.903320312 522.801757812 l 5
41 666 m 1
 74.2890625 666 l 1
 74.2890625 0 l 1
 41 0 l 1
 41 666 l 1
193.903320312 313.290039062 m 6
 406.264935396 313.290039062 493.516601562 359.77170594 493.516601562 472.903320312 c 4
 493.516601562 591.535892566 416.590893412 632.516601562 193.903320312 632.516601562 c 6
 54.9033203125 632.516601562 l 1
 54.9033203125 665.806640625 l 1
 193.903320312 665.806640625 l 6
 432.63435324 665.806640625 526.806640625 611.23780394 526.806640625 472.903320312 c 4
 526.806640625 339.972660866 423.308692025 280 193.903320312 280 c 6
 54.9033203125 280 l 1
 54.9033203125 313.290039062 l 1
 193.903320312 313.290039062 l 6
EndSplineSet
EndChar

StartChar: S
Encoding: 83 83 10
Width: 580
Flags: HW
LayerCount: 2
Fore
SplineSet
530.689453125 200.883789062 m 1
 530.689453125 120.837890625 l 1
 517.189453125 99.44921875 l 1
 513.689453125 78.060546875 l 1
 513.689453125 243.66015625 l 1
 514.83984375 224.411132812 l 1
 530.689453125 200.883789062 l 1
89.3662109375 540.883789062 m 1
 105.215820312 564.411132812 l 1
 106.366210938 583.66015625 l 1
 106.366210938 418.060546875 l 1
 102.866210938 439.44921875 l 1
 89.3662109375 460.837890625 l 1
 89.3662109375 540.883789062 l 1
298.366210938 320 m 0
 196.697265625 357.685546875 75.462890625 388.63671875 75.462890625 497.903320312 c 0
 75.462890625 617.170898438 169.098632812 675.806640625 328.366210938 675.806640625 c 0
 460.912109375 675.806640625 521.672851562 624.100585938 521.672851562 624.100585938 c 1
 502.048828125 596.06640625 l 1
 502.048828125 596.06640625 449.551757812 642.516601562 328.366210938 642.516601562 c 0
 189.025390625 642.516601562 108.752929688 597.244140625 108.752929688 497.903320312 c 0
 108.752929688 408.563476562 208.881835938 381.920898438 301.366210938 349.290039062 c 0
 393.608398438 316.745117188 544.592773438 287.169921875 544.592773438 157.903320312 c 0
 544.592773438 38.6357421875 430.95703125 -10 301.689453125 -10 c 4
 109.143554688 -10 41 44.7783203125 41 44.7783203125 c 5
 57.7783203125 73.6435546875 l 5
 57.7783203125 73.6435546875 120.50390625 23.2900390625 301.689453125 23.2900390625 c 4
 411.030273438 23.2900390625 511.302734375 58.5625 511.302734375 157.903320312 c 0
 511.302734375 267.243164062 380.87890625 289.415039062 298.366210938 320 c 0
EndSplineSet
EndChar

StartChar: U
Encoding: 85 85 11
Width: 647
Flags: HW
LayerCount: 2
Fore
SplineSet
54.9033203125 666 m 1
 71.9033203125 666 l 1
 71.9033203125 188 l 1
 68.4033203125 228 l 1
 54.9033203125 268 l 1
 54.9033203125 666 l 1
573.516601562 332.903320312 m 1
 573.51953125 666 l 1
 606.805664062 666 l 1
 606.805664062 332.903320312 l 1
 606.806746534 112.026198001 506.132604965 -10 323.903320312 -10 c 0
 141.65827012 -10 41 112.040938272 41 333 c 1
 41 666 l 1
 74.2890625 666 l 1
 74.2890625 333 l 1
 74.2901593155 131.46783335 161.477280295 23.2900390625 323.903320312 23.2900390625 c 0
 486.313984268 23.2900390625 573.516601562 131.453708635 573.516601562 332.903320312 c 1
592.903320312 666 m 1
 592.903320312 268 l 1
 578.928710938 234 l 1
 575.903320312 188 l 1
 575.903320312 666 l 1
 592.903320312 666 l 1
EndSplineSet
EndChar

StartChar: H
Encoding: 72 72 12
Width: 603
Flags: HW
LayerCount: 2
Fore
SplineSet
541 354.290039062 m 5
 541 321 l 5
 64 321 l 5
 64 354.290039062 l 5
 541 354.290039062 l 5
529 666 m 1
 562.2890625 666 l 1
 562.2890625 0 l 1
 529 0 l 1
 529 666 l 1
41 666 m 1
 74.2890625 666 l 1
 74.2890625 0 l 1
 41 0 l 1
 41 666 l 1
EndSplineSet
EndChar

StartChar: B
Encoding: 66 66 13
Width: 521
Flags: HW
LayerCount: 2
Fore
SplineSet
471.903320312 212.801757812 m 1
 471.903320312 129.29296875 l 1
 457.928710938 107.619140625 l 1
 454.903320312 78.294921875 l 1
 454.903320312 263.80078125 l 1
 460.278320312 231.926757812 l 1
 471.903320312 212.801757812 l 1
451.903320312 532.801757812 m 1
 451.903320312 449.29296875 l 1
 437.928710938 427.619140625 l 1
 434.903320312 398.294921875 l 1
 434.903320312 583.80078125 l 1
 440.278320312 551.926757812 l 1
 451.903320312 532.801757812 l 1
202.903320312 33.2900390625 m 6
 385.872697612 33.2900390625 452.516601562 70.5651954928 452.516601562 172.903320312 c 0
 452.516601562 275.531557908 383.102764877 320 222.903320312 320 c 6
 54.9033203125 320 l 1
 54.9033203125 343.290039062 l 1
 242.903320312 343.290039062 l 6
 410.15982276 343.290039062 485.806640625 290.226898289 485.806640625 172.903320312 c 0
 485.806640625 50.8287772156 402.640916475 0 202.903320312 0 c 6
 54.9033203125 0 l 1
 54.9033203125 33.2900390625 l 1
 202.903320312 33.2900390625 l 6
41 666 m 1
 74.2890625 666 l 1
 74.2890625 0 l 1
 41 0 l 1
 41 666 l 1
202.903320312 353.290039062 m 6
 367.879977868 353.290039062 432.516601562 392.591472645 432.516601562 492.903320312 c 0
 432.516601562 588.025539939 359.344919369 632.516601562 202.903320312 632.516601562 c 6
 54.9033203125 632.516601562 l 1
 54.9033203125 665.806640625 l 1
 202.903320312 665.806640625 l 6
 378.263662254 665.806640625 465.806640625 608.232352052 465.806640625 492.903320312 c 0
 465.806640625 377.713053805 394.662239337 330 222.903320312 330 c 6
 54.9033203125 330 l 1
 54.9033203125 353.290039062 l 1
 202.903320312 353.290039062 l 6
EndSplineSet
EndChar

StartChar: A
Encoding: 65 65 14
Width: 572
Flags: HW
LayerCount: 2
Fore
SplineSet
472.5 224.290039062 m 1
 472.5 191 l 1
 105.5 191 l 1
 105.5 224.290039062 l 1
 472.5 224.290039062 l 1
2.5 0 m 5
 272.5 666 l 5
 305.7890625 666 l 5
 305.7890625 661 l 5
 40.7890625 0 l 5
 2.5 0 l 5
575.7890625 0 m 5
 537.5 0 l 5
 272.5 661 l 5
 272.5 666 l 5
 305.7890625 666 l 5
 575.7890625 0 l 5
EndSplineSet
Substitution2: "'salt' Stylistic Alternatives in Latin lookup 0-1" A.salt
EndChar

StartChar: K
Encoding: 75 75 15
Width: 514
Flags: HW
LayerCount: 2
Fore
SplineSet
52 280 m 1
 147.269501636 338.02778736 383.800873752 553.607662645 481 671 c 1
 517.2890625 661 l 1
 428.213237059 549.840751049 154.864068133 303.682500191 62 251 c 1
 52 280 l 1
162 351 m 1
 180.2890625 371 l 1
 276.651292373 257.993590034 427.140601081 94.5541627726 517.2890625 5 c 1
 481 -5 l 1
 408.425743786 65.3747188341 358.295823569 121.319081208 162 351 c 1
41 666 m 1
 74.2890625 666 l 1
 74.2890625 0 l 1
 41 0 l 1
 41 666 l 1
EndSplineSet
EndChar

StartChar: L
Encoding: 76 76 16
Width: 499
Flags: HW
LayerCount: 2
Fore
SplineSet
458 33.2900390625 m 5
 458 0 l 5
 51 0 l 1
 51 33.2900390625 l 1
 458 33.2900390625 l 5
41 666 m 1
 74.2890625 666 l 1
 74.2890625 0 l 1
 41 0 l 1
 41 666 l 1
EndSplineSet
EndChar

StartChar: F
Encoding: 70 70 17
Width: 499
Flags: HW
LayerCount: 2
Fore
SplineSet
348 302.709960938 m 1
 51 302.709960938 l 1
 51 336 l 1
 348 336 l 1
 348 302.709960938 l 1
458 632.709960938 m 5
 51 632.709960938 l 5
 51 666 l 5
 458 666 l 5
 458 632.709960938 l 5
41 0 m 5
 41 666 l 5
 74.2890625 666 l 5
 74.2890625 0 l 5
 41 0 l 5
EndSplineSet
EndChar

StartChar: M
Encoding: 77 77 18
Width: 692
Flags: HW
LayerCount: 2
Fore
SplineSet
41 666 m 1
 74.2890625 666 l 1
 74.2890625 0 l 1
 41 0 l 1
 41 666 l 1
651 666 m 1
 651 0 l 1
 617.7109375 0 l 1
 617.7109375 666 l 1
 651 666 l 1
41 656 m 1
 74.2890625 666 l 1
 346 192.110351562 l 1
 617.7109375 666 l 1
 651 656 l 1
 361 149 l 1
 331 149 l 1
 41 656 l 1
EndSplineSet
EndChar

StartChar: N
Encoding: 78 78 19
Width: 603
Flags: HW
LayerCount: 2
Fore
SplineSet
41 656 m 1
 74.2890625 666 l 1
 562.2890625 10 l 1
 529 0 l 1
 41 656 l 1
529 666 m 1
 562.2890625 666 l 1
 562.2890625 0 l 1
 529 0 l 1
 529 666 l 1
41 666 m 1
 74.2890625 666 l 1
 74.2890625 0 l 1
 41 0 l 1
 41 666 l 1
EndSplineSet
EndChar

StartChar: T
Encoding: 84 84 20
Width: 598
Flags: HW
LayerCount: 2
Fore
SplineSet
41 632.7109375 m 5
 41 666 l 5
 557 666 l 5
 557 632.7109375 l 5
 41 632.7109375 l 5
282.35546875 656 m 1
 315.64453125 656 l 1
 315.64453125 0 l 1
 282.35546875 0 l 1
 282.35546875 656 l 1
EndSplineSet
EndChar

StartChar: V
Encoding: 86 86 21
Width: 572
Flags: HW
LayerCount: 2
Fore
SplineSet
575.7890625 666 m 5
 305.7890625 0 l 5
 272.5 0 l 5
 272.5 5 l 5
 537.5 666 l 5
 575.7890625 666 l 5
2.5 666 m 5
 40.7890625 666 l 5
 305.7890625 5 l 5
 305.7890625 0 l 5
 272.5 0 l 5
 2.5 666 l 5
EndSplineSet
EndChar

StartChar: W
Encoding: 87 87 22
Width: 782
Flags: HW
LayerCount: 2
Fore
SplineSet
785.7890625 666 m 1
 615.7890625 0 l 1
 582.5 0 l 1
 582.5 5 l 1
 747.5 666 l 1
 785.7890625 666 l 1
377.5 666 m 1
 410.7890625 666 l 1
 615.7890625 5 l 1
 615.7890625 0 l 1
 582.5 0 l 1
 377.5 666 l 1
405.7890625 666 m 1
 205.7890625 0 l 1
 172.5 0 l 1
 172.5 5 l 1
 372.5 666 l 1
 405.7890625 666 l 1
2.5 666 m 1
 40.7890625 666 l 1
 205.7890625 5 l 1
 205.7890625 0 l 1
 172.5 0 l 1
 2.5 666 l 1
EndSplineSet
EndChar

StartChar: uni018F
Encoding: 399 399 23
Width: 739
Flags: HW
LayerCount: 2
Fore
SplineSet
49.9091796875 266.806640625 m 1
 49.9091796875 277.806640625 l 1
 46.9091796875 357.806640625 l 1
 66.9091796875 357.806640625 l 1
 66.9091796875 186.806640625 l 1
 65.7587890625 222.806640625 l 1
 49.9091796875 266.806640625 l 1
690.065429688 266.806640625 m 1
 674.215820312 222.806640625 l 1
 673.065429688 186.806640625 l 1
 673.065429688 477.806640625 l 1
 676.565429688 437.806640625 l 1
 690.065429688 397.806640625 l 1
 690.065429688 266.806640625 l 1
69.3095703125 329.61328125 m 1
 72.6103515625 137.91015625 185.521484375 23.2900390625 371.065429688 23.2900390625 c 0
 546.78515625 23.2900390625 669.185546875 148.4375 670.665039062 329.61328125 c 1
 69.3095703125 329.61328125 l 1
669.524414062 362.903320312 m 1
 656.485351562 529.73046875 536.09765625 642.516601562 371.065429688 642.516601562 c 0
 284.129882812 642.516601562 208.919921875 614.169921875 155.215820312 561.1640625 c 1
 129.5234375 583.71484375 l 1
 189.28515625 643.688476562 273.524414062 675.806640625 371.065429688 675.806640625 c 0
 567.435546875 675.806640625 703.96875 535.171875 703.96875 332.903320312 c 0
 703.96875 130.115234375 567.940429688 -10 371.065429688 -10 c 0
 154.75390625 -10 16.861328125 144.461914062 38.162109375 362.903320312 c 1
 669.524414062 362.903320312 l 1
EndSplineSet
EndChar

StartChar: A.salt
Encoding: 65536 -1 24
Width: 742
Flags: HW
LayerCount: 2
Fore
SplineSet
668.516601562 666 m 1
 701.805664062 666 l 1
 701.805664062 0 l 1
 668.516601562 0 l 1
 668.516601562 666 l 1
49.9033203125 399 m 1
 65.7529296875 443 l 1
 66.9033203125 479 l 1
 66.9033203125 188 l 1
 63.4033203125 228 l 1
 49.9033203125 268 l 1
 49.9033203125 399 l 1
69.2900390625 332.903320312 m 0
 69.2900390625 150.560546875 192.450195312 23.2900390625 368.903320312 23.2900390625 c 0
 545.356445312 23.2900390625 668.516601562 150.560546875 668.516601562 332.903320312 c 0
 668.516601562 515.247070312 545.357421875 642.516601562 368.903320312 642.516601562 c 0
 192.44921875 642.516601562 69.2900390625 515.247070312 69.2900390625 332.903320312 c 0
36 332.903320312 m 0
 36 535.172851562 172.532226562 675.806640625 368.903320312 675.806640625 c 0
 563.833007812 675.806640625 696.806640625 536.75 696.806640625 332.903320312 c 4
 696.806640625 129.057617188 563.83203125 -10 368.903320312 -10 c 0
 172.533203125 -10 36 130.634765625 36 332.903320312 c 0
EndSplineSet
EndChar

StartChar: X
Encoding: 88 88 25
Width: 532
Flags: HW
LayerCount: 2
Fore
SplineSet
535.7890625 666 m 1
 45.7890625 0 l 1
 2.5 0 l 1
 492.5 666 l 1
 535.7890625 666 l 1
2.5 666 m 1
 45.7890625 666 l 1
 535.7890625 0 l 1
 492.5 0 l 1
 2.5 666 l 1
EndSplineSet
EndChar

StartChar: Y
Encoding: 89 89 26
Width: 572
Flags: HW
LayerCount: 2
Fore
SplineSet
272.5 260 m 1
 305.7890625 260 l 1
 305.64453125 0 l 1
 272.35546875 0 l 1
 272.5 260 l 1
575.7890625 666 m 1
 305.7890625 260 l 1
 272.5 260 l 1
 272.5 265 l 1
 537.5 666 l 1
 575.7890625 666 l 1
2.5 666 m 1
 40.7890625 666 l 1
 305.7890625 265 l 1
 305.7890625 260 l 1
 272.5 260 l 1
 2.5 666 l 1
EndSplineSet
EndChar

StartChar: Z
Encoding: 90 90 27
Width: 549
Flags: HW
LayerCount: 2
Fore
SplineSet
508 0 m 1
 41 0 l 1
 41 33.2900390625 l 1
 508 33.2900390625 l 1
 508 0 l 1
508 632.709960938 m 1
 61 632.709960938 l 1
 61 666 l 1
 508 666 l 1
 508 632.709960938 l 1
41 33.2900390625 m 1
 469.7109375 632.709960938 l 1
 508 632.709960938 l 1
 78.2890625 33.2900390625 l 1
 41 33.2900390625 l 1
EndSplineSet
EndChar

StartChar: zero
Encoding: 48 48 28
Width: 617
Flags: HW
LayerCount: 2
Fore
SplineSet
567.903320312 399 m 1
 567.903320312 268 l 1
 553.928710938 234 l 1
 550.903320312 188 l 1
 550.903320312 479 l 1
 556.278320312 429 l 1
 567.903320312 399 l 1
49.9033203125 399 m 5
 65.7529296875 443 l 5
 66.9033203125 479 l 5
 66.9033203125 188 l 5
 63.4033203125 228 l 5
 49.9033203125 268 l 5
 49.9033203125 399 l 5
69.2900390625 332.903320312 m 4
 69.2900390625 153.209960938 169.836914062 23.2900390625 308.903320312 23.2900390625 c 0
 447.969726562 23.2900390625 548.516601562 153.209960938 548.516601562 332.903320312 c 0
 548.516601562 512.59765625 447.970703125 642.516601562 308.903320312 642.516601562 c 0
 169.8359375 642.516601562 69.2900390625 512.59765625 69.2900390625 332.903320312 c 4
36 332.903320312 m 4
 36 532.59765625 149.974609375 675.806640625 308.903320312 675.806640625 c 0
 467.83203125 675.806640625 581.806640625 532.59765625 581.806640625 332.903320312 c 0
 581.806640625 133.2109375 467.831054688 -10 308.903320312 -10 c 0
 149.975585938 -10 36 133.2109375 36 332.903320312 c 4
EndSplineSet
EndChar

StartChar: one
Encoding: 49 49 29
Width: 283
Flags: HW
LayerCount: 2
Fore
SplineSet
54 540.709960938 m 1
 41 569 l 1
 106.011011456 597.964479062 160.963970932 629.747958116 208.7109375 666 c 1
 218.7109375 638.709960938 l 1
 168.237284408 602.087841963 110.95347502 568.005021445 54 540.709960938 c 1
242 0 m 1
 208.7109375 0 l 1
 208.7109375 666 l 1
 242 666 l 1
 242 0 l 1
EndSplineSet
EndChar

StartChar: two
Encoding: 50 50 30
Width: 523
Flags: HW
LayerCount: 2
Fore
SplineSet
41 0 m 1
 41 33.2890625 l 1
 487 33.2890625 l 1
 487 0 l 1
 41 0 l 1
472.2265625 540.883789062 m 1
 472.2265625 460.837890625 l 1
 458.7265625 439.44921875 l 1
 455.2265625 418.060546875 l 1
 455.2265625 583.66015625 l 1
 456.376953125 564.411132812 l 1
 472.2265625 540.883789062 l 1
41 33.2890625 m 1
 88.4907954661 66.6234557077 93.6747605584 70.6994170492 303 239.290039062 c 4
 395.879487537 314.095553129 452.83984375 412.405216652 452.83984375 497.903320312 c 4
 452.83984375 593.127475733 388.082069598 642.516601562 263.2265625 642.516601562 c 4
 203.953441457 642.516601562 137.39652218 627.418436313 102.543945312 606.06640625 c 5
 89.919921875 634.100585938 l 5
 125.512740588 658.531427141 197.298701584 675.806640625 263.2265625 675.806640625 c 4
 407.621167514 675.806640625 486.129882812 613.147362578 486.129882812 497.903320312 c 4
 486.129882812 403.044346161 424.332599088 301.082639423 308 204 c 4
 242.156254026 149.051642805 156.513048855 83.362743566 72.39453125 23.2890625 c 1
 41 33.2890625 l 1
EndSplineSet
EndChar

StartChar: three
Encoding: 51 51 31
Width: 503
Flags: HW
LayerCount: 2
Fore
SplineSet
194.080078125 355.806640625 m 1
 372.095703125 355.806640625 467.209960938 293.854492188 467.209960938 177.903320312 c 0
 467.209960938 59.94140625 385.3671875 0 224.306640625 0 c 0
 158.37890625 0 82.4501953125 17.275390625 41 41.7060546875 c 1
 53.6240234375 69.740234375 l 1
 94.333984375 48.388671875 165.033203125 33.2900390625 224.306640625 33.2900390625 c 0
 365.982421875 33.2900390625 433.919921875 80.16015625 433.919921875 177.903320312 c 0
 433.919921875 279.96875 358.799804688 326.516601562 194.080078125 326.516601562 c 1
 194.080078125 355.806640625 l 1
453.306640625 134.922851562 m 1
 437.45703125 111.395507812 l 1
 436.306640625 92.146484375 l 1
 436.306640625 257.74609375 l 1
 439.806640625 236.357421875 l 1
 453.306640625 214.96875 l 1
 453.306640625 134.922851562 l 1
194.080078125 332.516601562 m 1
 194.080078125 361.806640625 l 1
 365.157226562 361.806640625 434.146484375 400.91796875 434.146484375 497.903320312 c 0
 434.146484375 593.127929688 369.388671875 642.516601562 244.533203125 642.516601562 c 0
 185.259765625 642.516601562 118.703125 627.41796875 83.8505859375 606.06640625 c 1
 71.2265625 634.100585938 l 1
 106.819335938 658.53125 178.60546875 675.806640625 244.533203125 675.806640625 c 0
 388.927734375 675.806640625 467.436523438 613.147460938 467.436523438 497.903320312 c 0
 467.436523438 386.38671875 378.3984375 332.516601562 194.080078125 332.516601562 c 1
453.533203125 540.883789062 m 1
 453.533203125 460.837890625 l 1
 440.033203125 439.44921875 l 1
 436.533203125 418.060546875 l 1
 436.533203125 583.66015625 l 1
 437.68359375 564.411132812 l 1
 453.533203125 540.883789062 l 1
EndSplineSet
EndChar

StartChar: four
Encoding: 52 52 32
Width: 559
Flags: HW
LayerCount: 2
Fore
SplineSet
381 536 m 1
 414.2890625 536 l 1
 414.2890625 0 l 1
 381 0 l 1
 381 536 l 1
518 273.290039062 m 1
 518 240 l 1
 41 240 l 1
 41 273.290039062 l 1
 518 273.290039062 l 1
241 671 m 1
 274.2890625 661 l 1
 233.209960938 529.665039062 149.631835938 366.090820312 64.2890625 250 c 1
 41 273.290039062 l 1
 120.184570312 375.395507812 193.760742188 521.706054688 241 671 c 1
EndSplineSet
EndChar

StartChar: five
Encoding: 53 53 33
Width: 503
Flags: HW
LayerCount: 2
Fore
SplineSet
439.306640625 632.709960938 m 1
 102.306640625 632.709960938 l 1
 102.306640625 666 l 1
 439.306640625 666 l 1
 439.306640625 632.709960938 l 1
69.080078125 385.806640625 m 1
 92.306640625 666 l 1
 125.595703125 666 l 1
 99.595703125 380 l 1
 69.080078125 385.806640625 l 1
69.080078125 385.806640625 m 1
 312.859375 432.537109375 467.209960938 359.689453125 467.209960938 197.903320312 c 0
 467.209960938 73.337890625 377.196289062 0 224.306640625 0 c 0
 158.37890625 0 82.4501953125 17.275390625 41 41.7060546875 c 1
 53.6240234375 69.740234375 l 1
 94.333984375 48.388671875 165.033203125 33.2900390625 224.306640625 33.2900390625 c 0
 357.297851562 33.2900390625 433.919921875 93.462890625 433.919921875 197.903320312 c 0
 433.919921875 343.48828125 305.512695312 401.70703125 84.080078125 356.516601562 c 1
 69.080078125 385.806640625 l 1
453.306640625 154.922851562 m 1
 437.45703125 131.395507812 l 1
 436.306640625 112.146484375 l 1
 436.306640625 277.74609375 l 1
 439.806640625 256.357421875 l 1
 453.306640625 234.96875 l 1
 453.306640625 154.922851562 l 1
EndSplineSet
EndChar

StartChar: six
Encoding: 54 54 34
Width: 542
Flags: HW
LayerCount: 2
Fore
SplineSet
487.903320312 245.776367188 m 1
 487.903320312 160.625976562 l 1
 474.403320312 134.625976562 l 1
 470.903320312 108.625976562 l 1
 470.903320312 297.776367188 l 1
 472.053710938 274.375976562 l 1
 487.903320312 245.776367188 l 1
49.9033203125 399 m 1
 65.7529296875 443 l 1
 66.9033203125 479 l 1
 66.9033203125 188 l 1
 63.4033203125 228 l 1
 49.9033203125 268 l 1
 49.9033203125 399 l 1
129.290039062 202.903320312 m 0
 129.290039062 87.078125 189.526367188 23.2900390625 298.903320312 23.2900390625 c 0
 397.055664062 23.2900390625 468.516601562 98.96484375 468.516601562 202.903320312 c 0
 468.516601562 299.334960938 401.376953125 362.516601562 298.903320312 362.516601562 c 0
 196.4296875 362.516601562 129.290039062 299.334960938 129.290039062 202.903320312 c 0
98.107421875 177.52734375 m 1
 75.5712890625 305.392578125 158.743164062 395.806640625 298.903320312 395.806640625 c 0
 421.279296875 395.806640625 501.806640625 319.248046875 501.806640625 202.903320312 c 0
 501.806640625 79.2978515625 416.703125 -10 298.903320312 -10 c 0
 137.206054688 -10 36 122.002929688 36 332.903320312 c 0
 36 545.33984375 139.833007812 675.806640625 308.903320312 675.806640625 c 0
 400.931640625 675.806640625 450.766601562 649.18359375 477.5 635.67578125 c 1
 463.513671875 605.01171875 l 1
 438.265625 616.981445312 394.224609375 642.516601562 308.903320312 642.516601562 c 0
 159.67578125 642.516601562 69.2900390625 525.725585938 69.2900390625 332.903320312 c 0
 69.2900390625 281.56640625 80.0625 223.482421875 98.107421875 177.52734375 c 1
EndSplineSet
EndChar

StartChar: seven
Encoding: 55 55 35
Width: 509
Flags: HW
LayerCount: 2
Fore
SplineSet
41 632.709960938 m 1
 41 666 l 1
 468 666 l 1
 468 632.709960938 l 1
 41 632.709960938 l 1
208 0 m 5
 167.7109375 0 l 5
 173.568801876 179.836436351 283.335395905 441.913483221 432.7109375 632.709960938 c 1
 468 632.709960938 l 1
 321.553390593 441.913483221 213.857864376 179.836436351 208 0 c 5
EndSplineSet
EndChar

StartChar: eight
Encoding: 56 56 36
Width: 542
Flags: HW
LayerCount: 2
Fore
SplineSet
492.903320312 215.776367188 m 1
 492.903320312 130.625976562 l 1
 479.403320312 104.625976562 l 1
 475.903320312 78.6259765625 l 1
 475.903320312 267.776367188 l 1
 477.053710938 244.375976562 l 1
 492.903320312 215.776367188 l 1
472.903320312 534.766601562 m 1
 472.903320312 469.266601562 l 1
 459.403320312 449.266601562 l 1
 455.903320312 429.266601562 l 1
 455.903320312 574.766601562 l 1
 457.053710938 556.766601562 l 1
 472.903320312 534.766601562 l 1
54.9033203125 215.776367188 m 1
 70.7529296875 244.375976562 l 1
 71.9033203125 267.776367188 l 1
 71.9033203125 78.6259765625 l 1
 68.4033203125 104.625976562 l 1
 54.9033203125 130.625976562 l 1
 54.9033203125 215.776367188 l 1
74.9033203125 534.766601562 m 5
 90.7529296875 556.766601562 l 5
 91.9033203125 574.766601562 l 5
 91.9033203125 429.266601562 l 5
 88.4033203125 449.266601562 l 5
 74.9033203125 469.266601562 l 5
 74.9033203125 534.766601562 l 5
94.2900390625 501.419921875 m 4
 94.2900390625 411.262662153 162.694774579 355.806640625 273.903320312 355.806640625 c 0
 385.111866045 355.806640625 453.516601562 411.262662153 453.516601562 501.419921875 c 0
 453.516601562 590.402703932 387.176641098 642.516601562 273.903320312 642.516601562 c 0
 160.629999527 642.516601562 94.2900390625 590.402703932 94.2900390625 501.419921875 c 4
61 501.419921875 m 4
 61 610.141382351 141.168671192 675.806640625 273.903320312 675.806640625 c 0
 406.637969433 675.806640625 486.806640625 610.141382351 486.806640625 501.419921875 c 0
 486.806640625 393.093007215 407.290925412 328.516601562 273.903320312 328.516601562 c 0
 140.515715212 328.516601562 61 393.093007215 61 501.419921875 c 4
74.2900390625 172.903320312 m 0
 74.2900390625 78.450125092 147.884346161 23.2900390625 273.903320312 23.2900390625 c 0
 399.922294463 23.2900390625 473.516601562 78.4501250921 473.516601562 172.903320312 c 0
 473.516601562 267.357372992 399.923438481 322.516601562 273.903320312 322.516601562 c 0
 147.883202143 322.516601562 74.2900390625 267.357372992 74.2900390625 172.903320312 c 0
41 172.903320312 m 0
 41 285.522172456 125.634172239 349.806640625 273.903320312 349.806640625 c 0
 422.172468386 349.806640625 506.806640625 285.522172457 506.806640625 172.903320312 c 0
 506.806640625 58.5369906775 419.533797979 -10 273.903320312 -10 c 0
 128.272842646 -10 41 58.5369906777 41 172.903320312 c 0
EndSplineSet
EndChar

StartChar: nine
Encoding: 57 57 38
Width: 542
Flags: HW
LayerCount: 2
Fore
SplineSet
54.9033203125 486.25 m 1
 70.7529296875 508.25 l 1
 71.9033203125 526.25 l 1
 71.9033203125 380.75 l 1
 68.4033203125 400.75 l 1
 54.9033203125 420.75 l 1
 54.9033203125 486.25 l 1
492.903320312 266.806640625 m 1
 477.053710938 222.806640625 l 1
 475.903320312 186.806640625 l 1
 475.903320312 477.806640625 l 1
 479.403320312 437.806640625 l 1
 492.903320312 397.806640625 l 1
 492.903320312 266.806640625 l 1
413.516601562 452.903320312 m 0
 413.516601562 569.831813695 348.498448372 642.516601562 243.903320312 642.516601562 c 0
 139.308192252 642.516601562 74.2900390625 569.831813695 74.2900390625 452.903320312 c 0
 74.2900390625 353.5625 144.5625 283.290039062 243.903320312 283.290039062 c 0
 344.07932476 283.290039062 413.516601562 352.727315864 413.516601562 452.903320312 c 0
435.69921875 530.279296875 m 1
 449.124826079 482.822586628 448.16655271 418.918009469 433.385742188 376 c 0
 405.046002481 293.711872756 339.310831731 250 243.903320312 250 c 0
 124.635742188 250 41 333.635742188 41 452.903320312 c 0
 41 589.493118837 119.569041206 675.806640625 243.903320312 675.806640625 c 0
 405.600567195 675.806640625 506.806640625 543.804128927 506.806640625 332.903320312 c 0
 506.806640625 120.466345987 402.973586525 -10 233.903320312 -10 c 0
 161.875042824 -10 102.040039062 6.623046875 65.306640625 30.130859375 c 1
 79.29296875 60.794921875 l 1
 114.541015625 38.8251953125 168.582411947 23.2900390625 233.903320312 23.2900390625 c 0
 383.130569123 23.2900390625 473.516601562 140.081211641 473.516601562 332.903320312 c 0
 473.516601562 402.445563515 455.057541365 498.78684263 435.69921875 530.279296875 c 1
EndSplineSet
EndChar

StartChar: question
Encoding: 63 63 39
Width: 473
Flags: HW
LayerCount: 2
Fore
SplineSet
423.306640625 550.883789062 m 1
 423.306640625 470.837890625 l 1
 409.806640625 449.44921875 l 1
 406.306640625 428.060546875 l 1
 406.306640625 593.66015625 l 1
 407.45703125 574.411132812 l 1
 423.306640625 550.883789062 l 1
160.291015625 25.994140625 m 0
 160.291015625 45.841796875 175.229492188 62 193.580078125 62 c 0
 211.930664062 62 226.869140625 45.841796875 226.869140625 25.994140625 c 0
 226.869140625 6.150390625 211.932617188 -10 193.580078125 -10 c 0
 175.227539062 -10 160.291015625 6.150390625 160.291015625 25.994140625 c 0
210.369140625 210 m 1
 177.080078125 205 l 1
 157.080078125 338.709960938 403.919921875 368.563476562 403.919921875 507.903320312 c 0
 403.919921875 589.955078125 329.8828125 642.516601562 214.306640625 642.516601562 c 0
 155.033203125 642.516601562 88.4765625 627.41796875 53.6240234375 606.06640625 c 1
 41 634.100585938 l 1
 76.5927734375 658.53125 148.37890625 675.806640625 214.306640625 675.806640625 c 0
 349.85546875 675.806640625 437.209960938 610.005859375 437.209960938 507.903320312 c 0
 437.209960938 348.04296875 190.369140625 313.104492188 210.369140625 210 c 1
EndSplineSet
EndChar

StartChar: period
Encoding: 46 46 40
Width: 148
Flags: HW
LayerCount: 2
Fore
SplineSet
41 25.994140625 m 4
 41 45.841796875 55.9384765625 62 74.2890625 62 c 4
 92.6396484375 62 107.578125 45.841796875 107.578125 25.994140625 c 4
 107.578125 6.150390625 92.6416015625 -10 74.2890625 -10 c 4
 55.9365234375 -10 41 6.150390625 41 25.994140625 c 4
EndSplineSet
EndChar

StartChar: comma
Encoding: 44 44 41
Width: 148
Flags: HW
LayerCount: 2
Fore
SplineSet
41 25.994140625 m 0
 41 45.841796875 55.9384765625 62 74.2890625 62 c 0
 92.6396484375 62 107.578125 45.841796875 107.578125 25.994140625 c 0
 107.578125 -7 96 -36 65.578125 -70.005859375 c 5
 37.2890625 -60.005859375 l 5
 37.2890625 -60.005859375 57.98828125 -41 57.98828125 -21.353515625 c 0
 57.98828125 -2.6728515625 41 -1.521484375 41 25.994140625 c 0
EndSplineSet
EndChar

StartChar: h
Encoding: 104 104 42
Width: 488
VWidth: 699
Flags: HW
LayerCount: 2
Fore
SplineSet
74.1904296875 676 m 1
 74.1904296875 0 l 1
 41 0 l 1
 41 676 l 1
 74.1904296875 676 l 1
74.1904296875 233.030273438 m 1
 46.0615234375 233.032226562 l 1
 46.0615234375 387.645410801 116.531645398 473.059570312 244.09375 473.059570312 c 0
 373.039961847 473.059570312 447.125976562 385.474118376 447.125976562 233.032226562 c 1
 447.125976562 0 l 1
 412.935546875 0 l 1
 413.935546875 233.032226562 l 1
 413.935546875 365.881247179 353.32532334 439.575195312 244.0625 439.575195312 c 0
 134.800900276 439.575195312 74.1904296875 365.879826265 74.1904296875 233.030273438 c 1
437.393554688 279.299804688 m 1
 437.393554688 0 l 1
 415.52734375 0 l 1
 415.52734375 330.493164062 l 1
 416.293945312 306.477539062 l 1
 437.393554688 279.299804688 l 1
EndSplineSet
EndChar

StartChar: exclam
Encoding: 33 33 43
Width: 148
Flags: HW
LayerCount: 2
Fore
SplineSet
41 25.994140625 m 0
 41 45.841796875 55.9384765625 62 74.2890625 62 c 0
 92.6396484375 62 107.578125 45.841796875 107.578125 25.994140625 c 0
 107.578125 6.150390625 92.6416015625 -10 74.2890625 -10 c 0
 55.9365234375 -10 41 6.150390625 41 25.994140625 c 0
57.7890625 666 m 5
 91.078125 666 l 5
 91.078125 210 l 5
 57.7890625 210 l 5
 57.7890625 666 l 5
EndSplineSet
EndChar

StartChar: colon
Encoding: 58 58 44
Width: 148
Flags: HW
LayerCount: 2
Fore
SplineSet
41 325.994140625 m 4
 41 345.841868773 55.9389307642 362 74.2890625 362 c 4
 92.6391942358 362 107.578125 345.841868773 107.578125 325.994140625 c 4
 107.578125 306.150043195 92.641810701 290 74.2890625 290 c 4
 55.936314299 290 41 306.150043195 41 325.994140625 c 4
41 25.994140625 m 0
 41 45.8418687727 55.9389307642 62 74.2890625 62 c 0
 92.6391942358 62 107.578125 45.8418687727 107.578125 25.994140625 c 0
 107.578125 6.15004319504 92.641810701 -10 74.2890625 -10 c 0
 55.936314299 -10 41 6.15004319504 41 25.994140625 c 0
EndSplineSet
EndChar

StartChar: semicolon
Encoding: 59 59 45
Width: 148
Flags: HW
LayerCount: 2
Fore
SplineSet
41 25.994140625 m 4
 41 45.841796875 55.9384765625 62 74.2890625 62 c 4
 92.6396484375 62 107.578125 45.841796875 107.578125 25.994140625 c 4
 107.578125 -7 96 -36 65.578125 -70.005859375 c 5
 37.2890625 -60.005859375 l 5
 37.2890625 -60.005859375 57.98828125 -41 57.98828125 -21.353515625 c 4
 57.98828125 -2.6728515625 41 -1.521484375 41 25.994140625 c 4
41 325.994140625 m 0
 41 345.841868773 55.9389307642 362 74.2890625 362 c 0
 92.6391942358 362 107.578125 345.841868773 107.578125 325.994140625 c 0
 107.578125 306.150043195 92.641810701 290 74.2890625 290 c 0
 55.936314299 290 41 306.150043195 41 325.994140625 c 0
EndSplineSet
EndChar

StartChar: o
Encoding: 111 111 46
Width: 538
VWidth: 699
Flags: HW
LayerCount: 2
Fore
SplineSet
492.33203125 279.299804688 m 1
 492.33203125 187.599609375 l 1
 472.544921875 167.053710938 l 1
 470.526367188 136.3671875 l 1
 470.526367188 330.493164062 l 1
 474.112304688 297.138671875 l 1
 492.33203125 279.299804688 l 1
45.732421875 279.299804688 m 1
 66.83203125 306.477539062 l 1
 67.5986328125 330.493164062 l 1
 67.5986328125 136.3671875 l 1
 65.263671875 163.05078125 l 1
 45.732421875 187.599609375 l 1
 45.732421875 279.299804688 l 1
69.1904296875 233.032226562 m 4
 69.1904296875 111.390625 151.350585938 26.4892578125 269.063476562 26.4892578125 c 0
 386.775390625 26.4892578125 468.935546875 111.391601562 468.935546875 233.032226562 c 4
 468.935546875 354.673828125 386.776367188 439.575195312 269.063476562 439.575195312 c 4
 151.349609375 439.575195312 69.1904296875 354.673828125 69.1904296875 233.032226562 c 4
36 233.032226562 m 4
 36 374.619140625 131.571289062 473.059570312 269.032226562 473.059570312 c 4
 406.493164062 473.059570312 502.064453125 374.619140625 502.064453125 233.032226562 c 4
 502.064453125 91.4443359375 406.491210938 -7 269.032226562 -7 c 0
 131.573242188 -7 36 91.4443359375 36 233.032226562 c 4
EndSplineSet
EndChar

StartChar: a
Encoding: 97 97 47
Width: 543
VWidth: 699
Flags: HW
LayerCount: 2
Fore
SplineSet
35.8740234375 233.032226562 m 0
 35.8740234375 374.619140625 131.4453125 473.059570312 268.90625 473.059570312 c 0
 404.926757812 473.059570312 496.938476562 376.208007812 496.938476562 233.032226562 c 4
 496.938476562 89.85546875 404.924804688 -7 268.90625 -7 c 0
 131.447265625 -7 35.8740234375 91.4443359375 35.8740234375 233.032226562 c 0
69.064453125 233.032226562 m 0
 69.064453125 111.390625 151.224609375 26.4892578125 268.9375 26.4892578125 c 0
 386.650390625 26.4892578125 468.809570312 111.389648438 468.809570312 233.030273438 c 0
 468.809570312 354.672851562 386.649414062 439.575195312 268.9375 439.575195312 c 0
 151.223632812 439.575195312 69.064453125 354.673828125 69.064453125 233.032226562 c 0
45.6064453125 279.299804688 m 1
 66.7060546875 306.477539062 l 1
 67.47265625 330.493164062 l 1
 67.47265625 136.3671875 l 1
 65.1376953125 163.05078125 l 1
 45.6064453125 187.599609375 l 1
 45.6064453125 279.299804688 l 1
468.809570312 463.059570312 m 1
 502 463.059570312 l 1
 502 0 l 1
 468.809570312 0 l 1
 468.809570312 463.059570312 l 1
EndSplineSet
EndChar

StartChar: i
Encoding: 105 105 48
Width: 148
VWidth: 699
Flags: HW
LayerCount: 2
Fore
SplineSet
41 585.994140625 m 0
 41 605.841868773 55.9389307642 622 74.2890625 622 c 0
 92.6391942358 622 107.578125 605.841868773 107.578125 585.994140625 c 0
 107.578125 566.150043195 92.641810701 550 74.2890625 550 c 0
 55.936314299 550 41 566.150043195 41 585.994140625 c 0
57.7890625 463.059570312 m 5
 90.9794921875 463.059570312 l 5
 90.9794921875 0 l 1
 57.7890625 0 l 1
 57.7890625 463.059570312 l 5
EndSplineSet
EndChar

StartChar: d
Encoding: 100 100 49
Width: 543
VWidth: 699
Flags: HW
LayerCount: 2
Fore
SplineSet
36 233.032226562 m 0
 36 374.619140625 131.571289062 473.059570312 269.032226562 473.059570312 c 0
 405.052734375 473.059570312 497.064453125 376.208007812 497.064453125 233.032226562 c 0
 497.064453125 89.85546875 405.05078125 -7 269.032226562 -7 c 0
 131.573242188 -7 36 91.4443359375 36 233.032226562 c 0
69.1904296875 233.032226562 m 0
 69.1904296875 111.390625 151.350585938 26.4892578125 269.063476562 26.4892578125 c 0
 386.776367188 26.4892578125 468.935546875 111.389648438 468.935546875 233.030273438 c 0
 468.935546875 354.672851562 386.775390625 439.575195312 269.063476562 439.575195312 c 0
 151.349609375 439.575195312 69.1904296875 354.673828125 69.1904296875 233.032226562 c 0
45.732421875 279.299804688 m 1
 66.83203125 306.477539062 l 1
 67.5986328125 330.493164062 l 1
 67.5986328125 136.3671875 l 1
 65.263671875 163.05078125 l 1
 45.732421875 187.599609375 l 1
 45.732421875 279.299804688 l 1
468.935546875 676 m 5
 502.125976562 676 l 5
 502.125976562 0 l 1
 468.935546875 0 l 1
 468.935546875 676 l 5
EndSplineSet
EndChar

StartChar: b
Encoding: 98 98 50
Width: 543
VWidth: 699
Flags: HW
LayerCount: 2
Fore
SplineSet
507.125976562 233.032226562 m 0
 507.125976562 91.444416583 411.552469965 -7 274.09375 -7 c 0
 138.075119854 -7 46.0615234375 89.8557328707 46.0615234375 233.032226562 c 0
 46.0615234375 376.208213667 138.072834133 473.059570312 274.09375 473.059570312 c 0
 411.554801299 473.059570312 507.125976562 374.619557633 507.125976562 233.032226562 c 0
473.935546875 233.032226562 m 0
 473.935546875 354.673953427 391.776033038 439.575195312 274.0625 439.575195312 c 0
 156.350283114 439.575195312 74.1904296875 354.672384827 74.1904296875 233.030273438 c 0
 74.1904296875 111.389823933 156.349665081 26.4892578125 274.0625 26.4892578125 c 0
 391.77556375 26.4892578125 473.935546875 111.390984646 473.935546875 233.032226562 c 0
497.393554688 279.299804688 m 1
 497.393554688 187.599609375 l 1
 477.862304688 163.05078125 l 1
 475.52734375 136.3671875 l 1
 475.52734375 330.493164062 l 1
 476.293945312 306.477539062 l 1
 497.393554688 279.299804688 l 1
74.1904296875 676 m 5
 74.1904296875 0 l 5
 41 0 l 5
 41 676 l 5
 74.1904296875 676 l 5
EndSplineSet
EndChar

StartChar: q
Encoding: 113 113 51
Width: 543
VWidth: 699
Flags: HW
LayerCount: 2
Fore
SplineSet
36 230.02734375 m 0
 36 371.615234375 131.573242188 470.059570312 269.032226562 470.059570312 c 0
 405.05078125 470.059570312 497.064453125 373.204101562 497.064453125 230.02734375 c 0
 497.064453125 86.8515625 405.052734375 -10 269.032226562 -10 c 0
 131.571289062 -10 36 88.4404296875 36 230.02734375 c 0
69.1904296875 230.02734375 m 0
 69.1904296875 108.385742188 151.349609375 23.484375 269.063476562 23.484375 c 0
 386.775390625 23.484375 468.935546875 108.38671875 468.935546875 230.029296875 c 0
 468.935546875 351.669921875 386.776367188 436.5703125 269.063476562 436.5703125 c 0
 151.350585938 436.5703125 69.1904296875 351.668945312 69.1904296875 230.02734375 c 0
45.732421875 183.759765625 m 1
 45.732421875 275.459960938 l 1
 65.263671875 300.008789062 l 1
 67.5986328125 326.692382812 l 1
 67.5986328125 132.56640625 l 1
 66.83203125 156.58203125 l 1
 45.732421875 183.759765625 l 1
468.935546875 -162.940429688 m 5
 468.935546875 463.059570312 l 1
 502.125976562 463.059570312 l 1
 502.125976562 -162.940429688 l 5
 468.935546875 -162.940429688 l 5
EndSplineSet
EndChar

StartChar: c
Encoding: 99 99 52
Width: 488
VWidth: 699
Flags: HW
LayerCount: 2
Fore
SplineSet
45.732421875 279.299804688 m 5
 66.83203125 306.477539062 l 5
 67.5986328125 330.493164062 l 5
 67.5986328125 136.3671875 l 5
 65.263671875 163.05078125 l 5
 45.732421875 187.599609375 l 5
 45.732421875 279.299804688 l 5
36 233.032226562 m 4
 36 374.619140625 131.571289062 473.059570312 269.032226562 473.059570312 c 0
 342.278320312 473.059570312 405.427734375 445.188476562 447.88671875 394.122070312 c 1
 420.366210938 373.984375 l 1
 383.911132812 416.462890625 330.59765625 439.575195312 269.063476562 439.575195312 c 0
 151.349609375 439.575195312 69.1904296875 354.673828125 69.1904296875 233.032226562 c 4
 69.1904296875 111.390625 151.350585938 26.4892578125 269.063476562 26.4892578125 c 0
 330.59765625 26.4892578125 383.911132812 49.6015625 420.365234375 92.080078125 c 1
 447.887695312 71.9423828125 l 1
 405.428710938 20.873046875 342.278320312 -7 269.032226562 -7 c 0
 131.573242188 -7 36 91.4443359375 36 233.032226562 c 4
EndSplineSet
EndChar

StartChar: e
Encoding: 101 101 53
Width: 524
VWidth: 699
Flags: HW
LayerCount: 2
Fore
SplineSet
482.190429688 233.032226562 m 1024
472.458007812 279.299804688 m 1
 472.458007812 277.599609375 l 1
 452.926757812 253.05078125 l 1
 450.591796875 226.3671875 l 1
 450.591796875 330.493164062 l 1
 451.358398438 306.477539062 l 1
 472.458007812 279.299804688 l 1
448.935546875 246.032226562 m 1
 451.841796875 364.8515625 382.396484375 439.575195312 269.063476562 439.575195312 c 0
 151.349609375 439.575195312 69.1904296875 354.673828125 69.1904296875 233.032226562 c 0
 69.1904296875 111.390625 151.350585938 26.4892578125 269.063476562 26.4892578125 c 0
 330.59765625 26.4892578125 383.911132812 49.6015625 420.365234375 92.080078125 c 1
 447.887695312 71.9423828125 l 1
 405.428710938 20.873046875 342.278320312 -7 269.032226562 -7 c 0
 131.573242188 -7 36 91.4443359375 36 233.032226562 c 0
 36 374.619140625 131.571289062 473.059570312 269.032226562 473.059570312 c 0
 408.950195312 473.059570312 494.408203125 368.75 482.064453125 213.032226562 c 1
 59.0048828125 213.032226562 l 5
 59.0048828125 246.22265625 l 5
 448.935546875 246.032226562 l 1
45.732421875 279.299804688 m 1
 66.83203125 306.477539062 l 1
 67.5986328125 330.493164062 l 1
 67.5986328125 136.3671875 l 1
 65.263671875 163.05078125 l 1
 45.732421875 187.599609375 l 1
 45.732421875 279.299804688 l 1
EndSplineSet
EndChar

StartChar: p
Encoding: 112 112 54
Width: 543
VWidth: 699
Flags: HW
LayerCount: 2
Fore
SplineSet
507.125976562 230.02734375 m 0
 507.125976562 88.440012679 411.554801299 -10 274.09375 -10 c 0
 138.072834134 -10 46.0615234375 86.8513566449 46.0615234375 230.02734375 c 0
 46.0615234375 373.203837442 138.075119854 470.059570312 274.09375 470.059570312 c 0
 411.552469965 470.059570312 507.125976562 371.615153729 507.125976562 230.02734375 c 0
473.935546875 230.02734375 m 0
 473.935546875 351.668585666 391.775563749 436.5703125 274.0625 436.5703125 c 0
 156.349665081 436.5703125 74.1904296875 351.66974638 74.1904296875 230.029296875 c 0
 74.1904296875 108.387185486 156.350283113 23.484375 274.0625 23.484375 c 0
 391.776033037 23.484375 473.935546875 108.385616886 473.935546875 230.02734375 c 0
497.393554688 183.759765625 m 1
 476.293945312 156.58203125 l 1
 475.52734375 132.56640625 l 1
 475.52734375 326.692382812 l 1
 477.862304688 300.008789062 l 1
 497.393554688 275.459960938 l 1
 497.393554688 183.759765625 l 1
74.1904296875 -162.940429688 m 1
 41 -162.940429688 l 1
 41 463.059570312 l 1
 74.1904296875 463.059570312 l 1
 74.1904296875 -162.940429688 l 1
EndSplineSet
EndChar

StartChar: dotlessi
Encoding: 305 305 55
Width: 115
VWidth: 699
Flags: HW
LayerCount: 2
Fore
SplineSet
41 463.059570312 m 1
 74.1904296875 463.059570312 l 1
 74.1904296875 0 l 1
 41 0 l 1
 41 463.059570312 l 1
EndSplineSet
EndChar

StartChar: r
Encoding: 114 114 56
Width: 356
VWidth: 699
Flags: HW
LayerCount: 2
Fore
SplineSet
74.1904296875 463.059570312 m 1
 74.1904296875 0 l 1
 41 0 l 1
 41 463.059570312 l 1
 74.1904296875 463.059570312 l 1
313.620117188 434.23046875 m 5
 297.799349495 437.787344105 281.221954063 439.575195312 264.0625 439.575195312 c 4
 149.209091125 439.575195312 74.1904296875 357.969072093 74.1904296875 233.030273438 c 1
 46.0615234375 233.032226562 l 1
 46.0615234375 379.629496006 130.930050542 473.059570312 264.09375 473.059570312 c 4
 281.958528455 473.059570312 299.281736037 471.410129623 315.918945312 468.125 c 5
 313.620117188 434.23046875 l 5
EndSplineSet
EndChar

StartChar: f
Encoding: 102 102 57
Width: 305
VWidth: 699
Flags: HW
LayerCount: 2
Fore
SplineSet
114.606445312 0 m 1
 114.606445312 534.462890625 l 1
 134.137695312 559.01171875 l 1
 136.47265625 586.0625 l 1
 136.47265625 0 l 1
 114.606445312 0 l 1
271 463.059570312 m 1
 271 429.869140625 l 9
 41 429.869140625 l 1
 41 463.059570312 l 9
 271 463.059570312 l 1
329.173828125 676 m 1
 327.142578125 642.515625 l 1
 192.959960938 653.731445312 138.064453125 602.782226562 138.064453125 467.030273438 c 2
 138.064453125 0 l 1
 104.874023438 0 l 1
 104.874023438 467.030273438 l 2
 104.874023438 622.120117188 174.600585938 687.081054688 329.173828125 676 c 1
EndSplineSet
EndChar

StartChar: g
Encoding: 103 103 58
Width: 543
VWidth: 699
Flags: HW
LayerCount: 2
Fore
SplineSet
492.393554688 412.296875 m 1
 492.393554688 18.5966796875 l 1
 472.862304688 -5.9521484375 l 1
 470.52734375 -33.0029296875 l 1
 470.52734375 463.059570312 l 1
 471.293945312 439.474609375 l 1
 492.393554688 412.296875 l 1
45.732421875 193.759765625 m 1
 45.732421875 285.459960938 l 1
 65.263671875 310.008789062 l 1
 67.5986328125 336.692382812 l 1
 67.5986328125 142.56640625 l 1
 66.83203125 166.58203125 l 1
 45.732421875 193.759765625 l 1
69.1904296875 240.02734375 m 0
 69.1904296875 121.383789062 148.409179688 43.484375 269.063476562 43.484375 c 0
 389.715820312 43.484375 468.935546875 121.384765625 468.935546875 240.029296875 c 0
 468.935546875 358.671875 389.716796875 436.5703125 269.063476562 436.5703125 c 0
 148.41015625 436.5703125 69.1904296875 358.670898438 69.1904296875 240.02734375 c 0
36 240.02734375 m 0
 36 378.6171875 128.634765625 470.059570312 269.032226562 470.059570312 c 0
 407.913085938 470.059570312 497.064453125 380.125976562 497.064453125 240.02734375 c 0
 497.064453125 99.9296875 407.915039062 10 269.032226562 10 c 0
 128.6328125 10 36 101.438476562 36 240.02734375 c 0
502.125976562 67.0595703125 m 2
 501.786132812 -74.5771484375 406.141601562 -172.940429688 268.758789062 -172.940429688 c 0
 200.250976562 -172.940429688 153.513671875 -161.989257812 88.4208984375 -130.685546875 c 1
 101.184570312 -99.9931640625 l 1
 159.153320312 -126.76171875 213.032226562 -139.451171875 268.727539062 -139.451171875 c 0
 386.364257812 -139.451171875 468.594726562 -54.6318359375 468.935546875 67.0595703125 c 2
 468.935546875 463.059570312 l 1
 502.125976562 463.059570312 l 1
 502.125976562 67.0595703125 l 2
EndSplineSet
EndChar

StartChar: j
Encoding: 106 106 59
Width: 244
VWidth: 699
Flags: HW
LayerCount: 2
Fore
SplineSet
137.387695312 585.994140625 m 0
 137.387695312 605.841796875 152.326171875 622 170.676757812 622 c 0
 189.02734375 622 203.965820312 605.841796875 203.965820312 585.994140625 c 0
 203.965820312 566.150390625 189.029296875 550 170.676757812 550 c 0
 152.32421875 550 137.387695312 566.150390625 137.387695312 585.994140625 c 0
43.96875 -129.451171875 m 21
 137.765625 -145.130859375 154.176757812 -115.868164062 154.176757812 67.0595703125 c 6
 154.176757812 463.059570312 l 5
 187.3671875 463.059570312 l 5
 187.3671875 67.0595703125 l 6
 186.876953125 -137.2421875 160.421875 -178.811523438 41 -162.940429688 c 5
 43.96875 -129.451171875 l 21
177.634765625 463.059570312 m 5
 177.634765625 18.5966796875 l 5
 158.103515625 -5.9521484375 l 5
 155.768554688 -33.0029296875 l 5
 155.768554688 463.059570312 l 5
 177.634765625 463.059570312 l 5
EndSplineSet
EndChar

StartChar: k
Encoding: 107 107 60
Width: 404
Flags: HW
LayerCount: 2
Fore
SplineSet
74.1904296875 676 m 1
 74.1904296875 0 l 1
 41 0 l 1
 41 676 l 1
 74.1904296875 676 l 1
49 261 m 1
 176.721003068 306.934746718 283.870230526 378.784030552 357.7890625 468.059570312 c 1
 394.078125 458.059570312 l 1
 326.604879851 373.858551484 187.585004809 280.069160676 59 232 c 1
 49 261 l 1
82 261 m 1
 107.2890625 278 l 5
 187.681855054 183.721350724 265.825712342 112.610440592 407.2890625 5 c 1
 371 -5 l 1
 242.660092004 91.051393905 170.418624791 157.543540198 82 261 c 1
EndSplineSet
EndChar

StartChar: l
Encoding: 108 108 61
Width: 115
VWidth: 699
Flags: HW
LayerCount: 2
Fore
SplineSet
74.1904296875 676 m 5
 74.1904296875 0 l 5
 41 0 l 5
 41 676 l 5
 74.1904296875 676 l 5
EndSplineSet
EndChar

StartChar: m
Encoding: 109 109 62
Width: 821
VWidth: 699
Flags: HW
LayerCount: 2
Fore
SplineSet
770.329101562 279.301757812 m 1
 770.329101562 0.001953125 l 1
 748.462890625 0.001953125 l 1
 748.462890625 330.495117188 l 1
 749.229492188 306.479492188 l 1
 770.329101562 279.301757812 l 1
427.125976562 233.032226562 m 1
 398.997070312 233.034179688 l 1
 398.997070312 387.647363925 469.467192274 473.061523438 597.029296875 473.061523438 c 0
 720.520447331 473.061523438 780.061523438 394.979719975 780.061523438 233.034179688 c 1
 780.061523438 0.001953125 l 1
 745.87109375 0.001953125 l 1
 746.87109375 233.034179688 l 1
 746.87109375 376.23789488 700.9104543 439.577148438 596.998046875 439.577148438 c 0
 487.73644715 439.577148438 427.125976562 365.881779392 427.125976562 233.032226562 c 1
74.1904296875 233.030273438 m 1
 46.0615234375 233.032226562 l 1
 46.0615234375 387.645410801 116.531645398 473.059570312 244.09375 473.059570312 c 0
 367.584900457 473.059570312 427.125976562 394.97776685 427.125976562 233.032226562 c 1
 427.125976562 0 l 1
 392.935546875 0 l 1
 393.935546875 233.032226562 l 1
 393.935546875 376.235941754 347.974907426 439.575195312 244.0625 439.575195312 c 0
 134.800900276 439.575195312 74.1904296875 365.879826265 74.1904296875 233.030273438 c 1
74.1904296875 463.059570312 m 1
 74.1904296875 0 l 1
 41 0 l 1
 41 463.059570312 l 1
 74.1904296875 463.059570312 l 1
EndSplineSet
EndChar

StartChar: n
Encoding: 110 110 63
Width: 488
VWidth: 699
Flags: HW
LayerCount: 2
Fore
SplineSet
74.1904296875 463.059570312 m 1
 74.1904296875 0 l 1
 41 0 l 1
 41 463.059570312 l 1
 74.1904296875 463.059570312 l 1
74.1904296875 233.030273438 m 1
 46.0615234375 233.032226562 l 1
 46.0615234375 387.645410801 116.531645398 473.059570312 244.09375 473.059570312 c 0
 373.039961847 473.059570312 447.125976562 385.474118376 447.125976562 233.032226562 c 5
 447.125976562 0 l 5
 412.935546875 0 l 5
 413.935546875 233.032226562 l 5
 413.935546875 365.881247179 353.32532334 439.575195312 244.0625 439.575195312 c 0
 134.800900276 439.575195312 74.1904296875 365.879826265 74.1904296875 233.030273438 c 1
437.393554688 279.299804688 m 5
 437.393554688 0 l 5
 415.52734375 0 l 5
 415.52734375 330.493164062 l 5
 416.293945312 306.477539062 l 5
 437.393554688 279.299804688 l 5
EndSplineSet
EndChar

StartChar: s
Encoding: 115 115 64
Width: 445
VWidth: 699
Flags: HW
LayerCount: 2
Fore
SplineSet
399.482421875 126.294921875 m 1
 399.482421875 94.5947265625 l 1
 379.951171875 70.0458984375 l 1
 377.616210938 43.3623046875 l 1
 377.616210938 177.48828125 l 1
 378.3828125 153.47265625 l 1
 399.482421875 126.294921875 l 1
80.060546875 369.299804688 m 1
 101.16015625 396.477539062 l 1
 101.926757812 420.493164062 l 1
 101.926757812 286.3671875 l 1
 99.591796875 313.05078125 l 1
 80.060546875 337.599609375 l 1
 80.060546875 369.299804688 l 1
233.360351562 213 m 0
 110.52734375 253.961914062 70.328125 288.489257812 70.328125 353.032226562 c 0
 70.328125 427.364257812 136.203125 473.059570312 243.360351562 473.059570312 c 0
 311.120117188 473.059570312 374.700195312 457.75 396.856445312 436.099609375 c 1
 378.631835938 407.276367188 l 1
 360.112304688 426.196289062 304.094726562 439.575195312 243.391601562 439.575195312 c 0
 155.194335938 439.575195312 103.518554688 407.6015625 103.518554688 353.032226562 c 0
 103.518554688 303.950195312 139.249023438 274.637695312 233.391601562 246.489257812 c 0
 365.811523438 206.895507812 409.21484375 173.208984375 409.21484375 110.02734375 c 0
 409.21484375 31.1044921875 346.534179688 -10 226.182617188 -10 c 0
 158.422851562 -10 81.7177734375 6.8515625 41 30.6826171875 c 1
 53.8994140625 62.25 l 1
 94.099609375 39.5419921875 165.448242188 23.484375 226.151367188 23.484375 c 0
 327.619140625 23.484375 376.024414062 51.435546875 376.024414062 110.02734375 c 0
 376.024414062 156.641601562 353.403320312 172.96875 233.360351562 213 c 0
EndSplineSet
EndChar

StartChar: t
Encoding: 116 116 65
Width: 373
VWidth: 699
Flags: HW
LayerCount: 2
Fore
SplineSet
311 429.869140625 m 5
 41 429.869140625 l 21
 41 463.059570312 l 5
 311 463.059570312 l 21
 311 429.869140625 l 5
353.173828125 1.2275390625 m 1
 198.600912333 -9.85396517466 128.874023438 55.107343761 128.874023438 210.197265625 c 2
 128.874023438 617.227539062 l 1
 162.064453125 617.227539062 l 1
 162.064453125 210.197265625 l 2
 162.064453125 74.4455033275 216.960209574 23.4961874306 351.142578125 34.7119140625 c 1
 353.173828125 1.2275390625 l 1
EndSplineSet
EndChar

StartChar: u
Encoding: 117 117 66
Width: 488
VWidth: 699
Flags: HW
LayerCount: 2
Fore
SplineSet
413.935546875 0 m 5
 413.935546875 463.059570312 l 5
 447.125976562 463.059570312 l 5
 447.125976562 0 l 5
 413.935546875 0 l 5
413.935546875 230.029296875 m 5
 442.064453125 230.02734375 l 5
 442.064453125 75.4141595118 371.594331164 -10 244.032226562 -10 c 4
 115.086014716 -10 41 77.5854519369 41 230.02734375 c 5
 41 463.059570312 l 5
 75.1904296875 463.059570312 l 5
 74.1904296875 230.02734375 l 5
 74.1904296875 97.1783231331 134.800653223 23.484375 244.063476562 23.484375 c 4
 353.325076287 23.484375 413.935546875 97.1797440464 413.935546875 230.029296875 c 5
50.732421875 183.759765625 m 5
 50.732421875 463.059570312 l 5
 72.5986328125 463.059570312 l 5
 72.5986328125 132.56640625 l 5
 71.83203125 156.58203125 l 5
 50.732421875 183.759765625 l 5
EndSplineSet
EndChar

StartChar: v
Encoding: 118 118 67
Width: 432
VWidth: 699
Flags: HW
LayerCount: 2
Fore
SplineSet
397.5 463.059570312 m 1
 435.690429688 463.059570312 l 1
 235.690429688 0 l 1
 202.5 0 l 1
 202.5 5 l 1
 397.5 463.059570312 l 1
2.5 463.059570312 m 1
 40.6904296875 463.059570312 l 1
 235.690429688 5 l 1
 235.690429688 0 l 1
 202.5 0 l 1
 2.5 463.059570312 l 1
EndSplineSet
EndChar

StartChar: w
Encoding: 119 119 68
Width: 667
VWidth: 699
Flags: HW
LayerCount: 2
Fore
SplineSet
632.5 463.059570312 m 1
 670.690429688 463.059570312 l 1
 510.690429688 0 l 1
 477.5 0 l 1
 477.5 5 l 1
 632.5 463.059570312 l 1
317.5 463.059570312 m 1
 355.690429688 463.059570312 l 1
 510.690429688 5 l 1
 510.690429688 0 l 1
 477.5 0 l 1
 317.5 463.059570312 l 1
317.5 463.059570312 m 1
 355.690429688 463.059570312 l 1
 195.690429688 0 l 5
 162.5 0 l 5
 162.5 5 l 5
 317.5 463.059570312 l 1
2.5 463.059570312 m 1
 40.6904296875 463.059570312 l 1
 195.690429688 5 l 5
 195.690429688 0 l 5
 162.5 0 l 5
 2.5 463.059570312 l 1
EndSplineSet
EndChar

StartChar: x
Encoding: 120 120 69
Width: 372
VWidth: 699
Flags: HW
LayerCount: 2
Fore
SplineSet
375.690429688 463.059570312 m 1
 40.6904296875 0 l 1
 2.5 0 l 1
 337.5 463.059570312 l 1
 375.690429688 463.059570312 l 1
2.5 463.059570312 m 1
 40.6904296875 463.059570312 l 1
 375.690429688 0 l 1
 337.5 0 l 1
 2.5 463.059570312 l 1
EndSplineSet
EndChar

StartChar: y
Encoding: 121 121 70
Width: 432
VWidth: 699
Flags: HW
LayerCount: 2
Fore
SplineSet
397.5 463.059570312 m 1
 435.690429688 463.059570312 l 1
 165.690429688 -163 l 1
 132.5 -163 l 1
 222.5 45 l 1
 397.5 463.059570312 l 1
2.5 463.059570312 m 1
 40.6904296875 463.059570312 l 1
 254.690429688 46 l 5
 245.690429688 40 l 1
 222.5 40 l 1
 2.5 463.059570312 l 1
EndSplineSet
EndChar

StartChar: z
Encoding: 122 122 71
Width: 445
VWidth: 699
Flags: HW
LayerCount: 2
Fore
SplineSet
391 0 m 1
 41 0 l 17
 41 33.1904296875 l 1
 391 33.1904296875 l 17
 391 0 l 1
404.190429688 429.869140625 m 5
 74.1904296875 429.869140625 l 17
 74.1904296875 463.059570312 l 1
 404.190429688 463.059570312 l 21
 404.190429688 429.869140625 l 5
366 429.869140625 m 5
 404.190429688 429.869140625 l 5
 79.1904296875 33.1904296875 l 1
 41 33.1904296875 l 1
 366 429.869140625 l 5
EndSplineSet
EndChar

StartChar: uni0237
Encoding: 567 567 72
Width: 228
VWidth: 699
Flags: HW
LayerCount: 2
Fore
SplineSet
43.96875 -129.451171875 m 17
 137.765625 -145.130859375 154.176757812 -115.868164062 154.176757812 67.0595703125 c 2
 154.176757812 463.059570312 l 1
 187.3671875 463.059570312 l 1
 187.3671875 67.0595703125 l 2
 186.876953125 -137.2421875 160.421875 -178.811523438 41 -162.940429688 c 1
 43.96875 -129.451171875 l 17
177.634765625 463.059570312 m 1
 177.634765625 18.5966796875 l 1
 158.103515625 -5.9521484375 l 1
 155.768554688 -33.0029296875 l 1
 155.768554688 463.059570312 l 1
 177.634765625 463.059570312 l 1
EndSplineSet
EndChar

StartChar: dollar
Encoding: 36 36 73
Width: 500
Flags: HW
LayerCount: 2
Fore
SplineSet
225.35546875 6 m 1
 258.64453125 6 l 1
 258.64453125 -70 l 1
 225.35546875 -70 l 1
 225.35546875 6 l 1
251.35546875 746 m 1
 284.64453125 746 l 1
 284.64453125 670 l 1
 251.35546875 670 l 1
 251.35546875 746 l 1
450.689453125 200.883789062 m 1
 450.689453125 120.837890625 l 1
 437.189453125 99.44921875 l 1
 433.689453125 78.060546875 l 1
 433.689453125 243.66015625 l 1
 434.83984375 224.411132812 l 1
 450.689453125 200.883789062 l 1
79.3662109375 540.883789062 m 1
 95.2158203125 564.411132812 l 1
 96.3662109375 583.66015625 l 1
 96.3662109375 418.060546875 l 1
 92.8662109375 439.44921875 l 1
 79.3662109375 460.837890625 l 1
 79.3662109375 540.883789062 l 1
268.366210938 320 m 0
 166.697265625 357.685546875 65.462890625 398.63671875 65.462890625 507.903320312 c 0
 65.462890625 607.170898438 129.098632812 675.806640625 268.366210938 675.806640625 c 0
 360.912109375 675.806640625 431.672851562 624.100585938 431.672851562 624.100585938 c 1
 412.048828125 596.06640625 l 1
 412.048828125 596.06640625 349.551757812 642.516601562 268.366210938 642.516601562 c 0
 149.025390625 642.516601562 98.7529296875 587.244140625 98.7529296875 507.903320312 c 0
 98.7529296875 418.563476562 178.881835938 381.920898438 271.366210938 349.290039062 c 0
 363.608398438 316.745117188 464.592773438 287.169921875 464.592773438 157.903320312 c 0
 464.592773438 38.6357421875 360.95703125 -10 241.689453125 -10 c 0
 119.143554688 -10 41 44.7783203125 41 44.7783203125 c 1
 57.7783203125 73.6435546875 l 1
 57.7783203125 73.6435546875 130.50390625 23.2900390625 241.689453125 23.2900390625 c 0
 341.030273438 23.2900390625 431.302734375 58.5625 431.302734375 157.903320312 c 0
 431.302734375 267.243164062 350.87890625 289.415039062 268.366210938 320 c 0
EndSplineSet
EndChar

StartChar: ampersand
Encoding: 38 38 74
Width: 642
Flags: HW
LayerCount: 2
Fore
SplineSet
598.080078125 357.290039062 m 1
 601.080078125 324 l 1
 544.747070312 314.497070312 491.080078125 314 432.080078125 314 c 1
 432.080078125 347.290039062 l 1
 493.080078125 347.290039062 544.080078125 348 598.080078125 357.290039062 c 1
334.129882812 355.806640625 m 1
 334.129882812 326.516601562 l 1
 169.41015625 326.516601562 74.2900390625 279.96875 74.2900390625 177.903320312 c 0
 74.2900390625 80.16015625 142.227539062 33.2900390625 283.903320312 33.2900390625 c 0
 428.783911028 33.2900390625 476.473632812 103.700195312 476.473632812 204 c 0
 476.473632812 284 432.080078125 314 432.080078125 314 c 1
 462.080078125 320 l 1
 462.080078125 320 509.155273438 283 509.155273438 196 c 0
 509.155273438 84.03515625 446.967140262 -6.93889390391e-18 283.903320312 0 c 0
 122.842773438 6.85364814352e-18 41 59.94140625 41 177.903320312 c 0
 41 293.854492188 156.114257812 355.806640625 334.129882812 355.806640625 c 1
54.9033203125 134.922851562 m 1
 54.9033203125 214.96875 l 1
 68.4033203125 236.357421875 l 1
 71.9033203125 257.74609375 l 1
 71.9033203125 92.146484375 l 1
 70.7529296875 111.395507812 l 1
 54.9033203125 134.922851562 l 1
334.129882812 332.516601562 m 1
 149.811523438 332.516601562 60.7734375 386.38671875 60.7734375 497.903320312 c 0
 60.7734375 613.147460938 139.282226562 675.806640625 283.676757812 675.806640625 c 0
 349.604492188 675.806640625 421.390625 658.53125 456.983398438 634.100585938 c 1
 444.359375 606.06640625 l 1
 409.506835938 627.41796875 342.950195312 642.516601562 283.676757812 642.516601562 c 0
 158.821289062 642.516601562 94.0634765625 593.127929688 94.0634765625 497.903320312 c 0
 94.0634765625 400.91796875 163.052734375 361.806640625 334.129882812 361.806640625 c 1
 334.129882812 332.516601562 l 1
74.6767578125 540.883789062 m 1
 90.5263671875 564.411132812 l 1
 91.6767578125 583.66015625 l 1
 91.6767578125 418.060546875 l 1
 88.1767578125 439.44921875 l 1
 74.6767578125 460.837890625 l 1
 74.6767578125 540.883789062 l 1
EndSplineSet
EndChar

StartChar: hyphen
Encoding: 45 45 75
Width: 321
Flags: HW
LayerCount: 2
Fore
SplineSet
280 222.903320312 m 5
 280 189.61328125 l 5
 41 189.61328125 l 5
 41 222.903320312 l 5
 280 222.903320312 l 5
EndSplineSet
EndChar

StartChar: parenleft
Encoding: 40 40 76
Width: 279
Flags: HW
LayerCount: 2
Fore
SplineSet
238.903320312 -71.7099609375 m 1
 228.903320312 -100 l 1
 109.975585938 -40 36 98.2109375 36 307.903320312 c 4
 36 517.59765625 109.974609375 655.806640625 228.903320312 715.806640625 c 1
 238.903320312 687.516601562 l 1
 139.8359375 627.516601562 69.2900390625 507.59765625 69.2900390625 307.903320312 c 4
 69.2900390625 108.209960938 139.836914062 -11.7099609375 238.903320312 -71.7099609375 c 1
EndSplineSet
EndChar

StartChar: parenright
Encoding: 41 41 77
Width: 279
Flags: HW
LayerCount: 2
Fore
SplineSet
41 -71.7099609375 m 5
 51 -100 l 5
 169.927734375 -40 243.903320312 98.2109375 243.903320312 307.903320312 c 4
 243.903320312 517.59765625 169.928710938 655.806640625 51 715.806640625 c 5
 41 687.516601562 l 5
 140.067382812 627.516601562 210.61328125 507.59765625 210.61328125 307.903320312 c 4
 210.61328125 108.209960938 140.06640625 -11.7099609375 41 -71.7099609375 c 5
EndSplineSet
EndChar

StartChar: plus
Encoding: 43 43 78
Width: 401
Flags: HW
LayerCount: 2
Fore
SplineSet
217.14453125 156.7578125 m 1
 183.85546875 156.7578125 l 1
 183.85546875 475.7578125 l 1
 217.14453125 475.7578125 l 1
 217.14453125 156.7578125 l 1
360 332.903320312 m 5
 360 299.61328125 l 5
 41 299.61328125 l 5
 41 332.903320312 l 5
 360 332.903320312 l 5
EndSplineSet
EndChar

StartChar: multiply
Encoding: 215 215 79
Width: 401
Flags: HW
LayerCount: 2
Fore
SplineSet
345.052734375 195.244140625 m 1
 321.513671875 171.705078125 l 1
 55.947265625 437.271484375 l 1
 79.486328125 460.810546875 l 1
 345.052734375 195.244140625 l 1
321.513671875 460.811523438 m 1
 345.052734375 437.271484375 l 1
 79.486328125 171.705078125 l 1
 55.9462890625 195.244140625 l 1
 321.513671875 460.811523438 l 1
EndSplineSet
EndChar

StartChar: divide
Encoding: 247 247 80
Width: 401
Flags: HW
LayerCount: 2
Fore
SplineSet
167.2109375 465.994140625 m 0
 167.2109375 485.841796875 182.149414062 502 200.5 502 c 0
 218.850585938 502 233.7890625 485.841796875 233.7890625 465.994140625 c 0
 233.7890625 446.150390625 218.852539062 430 200.5 430 c 0
 182.147460938 430 167.2109375 446.150390625 167.2109375 465.994140625 c 0
167.2109375 165.994140625 m 0
 167.2109375 185.841796875 182.149414062 202 200.5 202 c 0
 218.850585938 202 233.7890625 185.841796875 233.7890625 165.994140625 c 0
 233.7890625 146.150390625 218.852539062 130 200.5 130 c 0
 182.147460938 130 167.2109375 146.150390625 167.2109375 165.994140625 c 0
360 332.903320312 m 5
 360 299.61328125 l 5
 41 299.61328125 l 5
 41 332.903320312 l 5
 360 332.903320312 l 5
EndSplineSet
EndChar

StartChar: equal
Encoding: 61 61 81
Width: 401
Flags: HW
LayerCount: 2
Fore
SplineSet
360 252.903320312 m 1
 360 219.61328125 l 1
 41 219.61328125 l 1
 41 252.903320312 l 1
 360 252.903320312 l 1
360 412.903320312 m 1
 360 379.61328125 l 1
 41 379.61328125 l 1
 41 412.903320312 l 1
 360 412.903320312 l 1
EndSplineSet
EndChar

StartChar: minus
Encoding: 8722 8722 82
Width: 401
Flags: HW
LayerCount: 2
Fore
SplineSet
360 332.903320312 m 5
 360 299.61328125 l 5
 41 299.61328125 l 5
 41 332.903320312 l 5
 360 332.903320312 l 5
EndSplineSet
EndChar

StartChar: percent
Encoding: 37 37 83
Width: 851
Flags: HW
LayerCount: 2
Fore
SplineSet
801.903320312 199 m 1
 801.903320312 148 l 1
 787.928710938 114 l 1
 784.903320312 68 l 1
 784.903320312 279 l 1
 790.278320312 229 l 1
 801.903320312 199 l 1
483.903320312 199 m 1
 499.752929688 243 l 1
 500.903320312 279 l 1
 500.903320312 68 l 1
 497.403320312 108 l 1
 483.903320312 148 l 1
 483.903320312 199 l 1
503.290039062 172.903320312 m 0
 503.290039062 70.560546875 566.450195312 23.2900390625 642.903320312 23.2900390625 c 0
 719.356445312 23.2900390625 782.516601562 70.560546875 782.516601562 172.903320312 c 0
 782.516601562 275.247070312 719.357421875 322.516601562 642.903320312 322.516601562 c 0
 566.44921875 322.516601562 503.290039062 275.247070312 503.290039062 172.903320312 c 0
470 172.903320312 m 0
 470 295.172851562 546.532226562 355.806640625 642.903320312 355.806640625 c 0
 739.274414062 355.806640625 815.806640625 295.172851562 815.806640625 172.903320312 c 0
 815.806640625 50.634765625 739.2734375 -10 642.903320312 -10 c 0
 546.533203125 -10 470 50.634765625 470 172.903320312 c 0
367.903320312 519.193359375 m 1
 367.903320312 468.193359375 l 1
 353.928710938 434.193359375 l 1
 350.903320312 388.193359375 l 1
 350.903320312 599.193359375 l 1
 356.278320312 549.193359375 l 1
 367.903320312 519.193359375 l 1
49.9033203125 519.193359375 m 1
 65.7529296875 563.193359375 l 1
 66.9033203125 599.193359375 l 1
 66.9033203125 388.193359375 l 1
 63.4033203125 428.193359375 l 1
 49.9033203125 468.193359375 l 1
 49.9033203125 519.193359375 l 1
69.2900390625 493.096679688 m 0
 69.2900390625 390.75390625 132.450195312 343.483398438 208.903320312 343.483398438 c 0
 285.356445312 343.483398438 348.516601562 390.75390625 348.516601562 493.096679688 c 0
 348.516601562 595.440429688 285.357421875 642.709960938 208.903320312 642.709960938 c 0
 132.44921875 642.709960938 69.2900390625 595.440429688 69.2900390625 493.096679688 c 0
36 493.096679688 m 0
 36 615.366210938 112.532226562 676 208.903320312 676 c 0
 305.274414062 676 381.806640625 615.366210938 381.806640625 493.096679688 c 0
 381.806640625 370.828125 305.2734375 310.193359375 208.903320312 310.193359375 c 0
 112.533203125 310.193359375 36 370.828125 36 493.096679688 c 0
677.192382812 666 m 1
 228.192382812 0 l 1
 189.903320312 0 l 1
 638.903320312 666 l 1
 677.192382812 666 l 1
EndSplineSet
EndChar

StartChar: slash
Encoding: 47 47 84
Width: 415
Flags: HW
LayerCount: 2
Fore
SplineSet
374.2890625 711 m 1
 79.2890625 -95 l 5
 41 -95 l 5
 336 711 l 1
 374.2890625 711 l 1
EndSplineSet
EndChar

StartChar: backslash
Encoding: 92 92 85
Width: 415
Flags: HW
LayerCount: 2
Fore
SplineSet
41 711 m 1
 79.2890625 711 l 1
 374.2890625 -95 l 5
 336 -95 l 5
 41 711 l 1
EndSplineSet
EndChar

StartChar: bar
Encoding: 124 124 86
Width: 114
Flags: HW
LayerCount: 2
Fore
SplineSet
74.29 711 m 5
 74.29 -95 l 1
 41 -95 l 1
 41 711 l 1
 74.29 711 l 5
EndSplineSet
EndChar

StartChar: at
Encoding: 64 64 87
Width: 737
Flags: HW
LayerCount: 2
Fore
SplineSet
69.2900390625 332.903320312 m 0
 69.2900390625 150.560546875 192.450195312 23.2900390625 368.903320312 23.2900390625 c 0
 545.356445312 23.2900390625 668.516601562 150.560546875 668.516601562 332.903320312 c 0
 668.516601562 515.247070312 545.357421875 642.516601562 368.903320312 642.516601562 c 0
 192.44921875 642.516601562 69.2900390625 515.247070312 69.2900390625 332.903320312 c 0
36 332.903320312 m 0
 36 535.172851562 172.532226562 675.806640625 368.903320312 675.806640625 c 0
 565.274414062 675.806640625 701.806640625 535.172851562 701.806640625 332.903320312 c 0
 701.806640625 130.634765625 565.2734375 -10 368.903320312 -10 c 0
 172.533203125 -10 36 130.634765625 36 332.903320312 c 0
155.4375 335.032226562 m 4
 155.4375 456.619140625 231.0078125 535.059570312 348.46875 535.059570312 c 4
 474.490234375 535.059570312 536.501953125 458.208007812 536.501953125 335.032226562 c 4
 536.501953125 211.85546875 474.48828125 135 348.46875 135 c 4
 231.009765625 135 155.4375 213.444335938 155.4375 335.032226562 c 4
188.626953125 335.032226562 m 4
 188.626953125 233.390625 250.787109375 168.489257812 348.5 168.489257812 c 4
 456.212890625 168.489257812 508.373046875 233.389648438 508.373046875 335.030273438 c 4
 508.373046875 436.672851562 456.212890625 501.575195312 348.5 501.575195312 c 4
 250.787109375 501.575195312 188.626953125 436.673828125 188.626953125 335.032226562 c 4
165.169921875 381.299804688 m 5
 186.26953125 408.477539062 l 5
 187.03515625 432.493164062 l 5
 187.03515625 238.3671875 l 5
 184.701171875 265.05078125 l 5
 165.169921875 289.599609375 l 5
 165.169921875 381.299804688 l 5
508.373046875 525.059570312 m 5
 541.5625 525.059570312 l 5
 541.5625 142 l 5
 508.373046875 142 l 5
 508.373046875 525.059570312 l 5
EndSplineSet
EndChar

StartChar: bracketleft
Encoding: 91 91 88
Width: 284
Flags: HW
LayerCount: 2
Fore
SplineSet
243.9 711 m 1
 243.9 677.709960938 l 1
 74.2900390625 677.709960938 l 1
 74.2900390625 -61.7099609375 l 1
 243.9 -61.7099609375 l 1
 243.9 -95 l 1
 41 -95 l 1
 41 711 l 1
 243.9 711 l 1
EndSplineSet
EndChar

StartChar: bracketright
Encoding: 93 93 89
Width: 284
Flags: HW
LayerCount: 2
Fore
SplineSet
41 -95 m 1
 41 -61.7099609375 l 1
 210.610351562 -61.7099609375 l 1
 210.610351562 677.709960938 l 1
 41 677.709960938 l 1
 41 711 l 1
 243.900390625 711 l 1
 243.900390625 -95 l 1
 41 -95 l 1
EndSplineSet
EndChar

StartChar: yen
Encoding: 165 165 90
Width: 575
Flags: HW
LayerCount: 2
Fore
SplineSet
447 132.903320312 m 1
 447 99.61328125 l 1
 128 99.61328125 l 1
 128 132.903320312 l 1
 447 132.903320312 l 1
447 242.903320312 m 1
 447 209.61328125 l 1
 128 209.61328125 l 1
 128 242.903320312 l 1
 447 242.903320312 l 1
271 320 m 1
 304.2890625 320 l 1
 304.14453125 0 l 1
 270.85546875 0 l 1
 271 320 l 1
534.2890625 666 m 1
 304.2890625 320 l 1
 271 320 l 1
 271 325 l 1
 496 666 l 1
 534.2890625 666 l 1
41 666 m 1
 79.2890625 666 l 1
 304.2890625 325 l 1
 304.2890625 320 l 1
 271 320 l 1
 41 666 l 1
EndSplineSet
EndChar

StartChar: sterling
Encoding: 163 163 91
Width: 521
Flags: HW
LayerCount: 2
Fore
SplineSet
41 33.2890625 m 1
 100.33984375 33.2890625 180 106 180 174 c 0
 180 262.428710938 92.462890625 328.63671875 92.462890625 487.903320312 c 0
 92.462890625 607.170898438 166.098632812 675.806640625 305.366210938 675.806640625 c 0
 417.912109375 675.806640625 468.672851562 624.100585938 468.672851562 624.100585938 c 1
 449.048828125 596.06640625 l 1
 449.048828125 596.06640625 406.551757812 642.516601562 305.366210938 642.516601562 c 0
 186.025390625 642.516601562 125.752929688 587.244140625 125.752929688 487.903320312 c 0
 125.752929688 328.563476562 210 274 210 174 c 0
 210 49.7099609375 70.267578125 10 41 10 c 1
 41 33.2890625 l 1
348 326.290039062 m 1
 348 293 l 1
 59 293 l 1
 59 326.290039062 l 1
 348 326.290039062 l 1
480 33.2900390625 m 1
 480 0 l 1
 41 0 l 1
 41 33.2900390625 l 1
 480 33.2900390625 l 1
106.366210938 510.883789062 m 1
 122.215820312 534.411132812 l 1
 123.366210938 553.66015625 l 1
 123.366210938 388.060546875 l 1
 119.866210938 409.44921875 l 1
 106.366210938 430.837890625 l 1
 106.366210938 510.883789062 l 1
EndSplineSet
EndChar

StartChar: section
Encoding: 167 167 92
Width: 460
VWidth: 699
Flags: HW
LayerCount: 2
Fore
SplineSet
238.391601562 376.634765625 m 5
 170.194335938 376.634765625 78.5185546875 324.661132812 78.5185546875 250.091796875 c 4
 78.5185546875 181.009765625 153.486328125 144.096679688 228.391601562 123.548828125 c 4
 360.323242188 87.357421875 404.21484375 30.2685546875 404.21484375 -32.9130859375 c 0
 404.21484375 -111.8359375 341.534179688 -172.940429688 221.182617188 -172.940429688 c 0
 153.422851562 -172.940429688 76.7177734375 -156.088867188 36 -132.2578125 c 1
 48.8994140625 -100.690429688 l 1
 89.099609375 -123.3984375 160.448242188 -139.456054688 221.151367188 -139.456054688 c 0
 322.619140625 -139.456054688 371.024414062 -91.5048828125 371.024414062 -32.9130859375 c 0
 371.024414062 13.701171875 347.80859375 53.287109375 228.360351562 90.0595703125 c 4
 124.2421875 122.112304688 45.328125 165.548828125 45.328125 250.091796875 c 4
 45.328125 344.423828125 151.203125 400.119140625 238.360351562 400.119140625 c 5
 238.391601562 376.634765625 l 5
221.151367188 119.629882812 m 5
 302.619140625 119.629882812 391.024414062 155.581054688 391.024414062 244.172851562 c 4
 391.024414062 320.787109375 328.403320312 337.114257812 228.360351562 377.145507812 c 4
 108.14453125 425.249023438 65.328125 472.634765625 65.328125 537.177734375 c 0
 65.328125 611.509765625 131.203125 677.205078125 238.360351562 677.205078125 c 0
 306.120117188 677.205078125 369.700195312 661.895507812 391.856445312 640.245117188 c 1
 373.631835938 611.421875 l 1
 355.112304688 630.341796875 299.094726562 643.720703125 238.391601562 643.720703125 c 0
 150.194335938 643.720703125 98.5185546875 591.747070312 98.5185546875 537.177734375 c 0
 98.5185546875 488.095703125 135.7109375 443.276367188 228.391601562 410.634765625 c 4
 340.811523438 371.041015625 424.21484375 337.354492188 424.21484375 244.172851562 c 4
 424.21484375 135.25 323.3515625 97 223 97 c 5
 221.151367188 119.629882812 l 5
414.482421875 260.440429688 m 5
 414.482421875 218.740234375 l 5
 394.951171875 194.19140625 l 5
 392.616210938 167.5078125 l 5
 392.616210938 311.633789062 l 5
 393.3828125 287.618164062 l 5
 414.482421875 260.440429688 l 5
75.060546875 553.4453125 m 1
 96.16015625 580.623046875 l 1
 96.9267578125 604.638671875 l 1
 96.9267578125 470.512695312 l 1
 94.591796875 497.196289062 l 1
 75.060546875 521.745117188 l 1
 75.060546875 553.4453125 l 1
394.482421875 -16.6455078125 m 1
 394.482421875 -48.345703125 l 1
 374.951171875 -72.89453125 l 1
 372.616210938 -99.578125 l 1
 372.616210938 34.5478515625 l 1
 373.3828125 10.5322265625 l 1
 394.482421875 -16.6455078125 l 1
55.060546875 266.359375 m 5
 76.16015625 293.537109375 l 5
 76.9267578125 317.552734375 l 5
 76.9267578125 183.426757812 l 5
 74.591796875 210.110351562 l 5
 55.060546875 234.659179688 l 5
 55.060546875 266.359375 l 5
EndSplineSet
EndChar

StartChar: paragraph
Encoding: 182 182 93
Width: 633
Flags: HW
LayerCount: 2
Fore
SplineSet
521.806640625 666 m 1
 521.806640625 0 l 1
 488.517578125 0 l 1
 488.517578125 666 l 1
 521.806640625 666 l 1
49.9033203125 522.801757812 m 5
 61.5283203125 541.926757812 l 5
 66.9033203125 573.80078125 l 5
 66.9033203125 388.294921875 l 5
 63.8779296875 417.619140625 l 5
 49.9033203125 439.29296875 l 5
 49.9033203125 522.801757812 l 5
381.806640625 666 m 1
 381.806640625 0 l 1
 348.517578125 0 l 1
 348.517578125 666 l 1
 381.806640625 666 l 1
278.903320312 333.290039062 m 2
 367.903320312 333.290039062 l 1
 367.903320312 300 l 1
 278.903320312 300 l 2
 120.068359375 300 36 335.393554688 36 472.903320312 c 4
 36 615.694335938 111.663085938 665.806640625 278.903320312 665.806640625 c 2
 597.903320312 665.806640625 l 1
 597.903320312 632.516601562 l 1
 278.903320312 632.516601562 l 2
 129.112304688 632.516601562 69.2900390625 595.768554688 69.2900390625 472.903320312 c 4
 69.2900390625 355.384765625 138.241210938 333.290039062 278.903320312 333.290039062 c 2
EndSplineSet
EndChar

StartChar: fraction
Encoding: 8260 8260 94
Width: 569
Flags: HW
LayerCount: 2
Fore
SplineSet
528.2890625 666 m 5
 79.2890625 0 l 5
 41 0 l 5
 490 666 l 5
 528.2890625 666 l 5
EndSplineSet
EndChar

StartChar: estimated
Encoding: 8494 8494 95
Width: 739
Flags: HW
LayerCount: 2
Fore
SplineSet
690.059570312 399 m 1
 690.059570312 388 l 1
 693.059570312 308 l 1
 673.059570312 308 l 1
 673.059570312 479 l 1
 674.209960938 443 l 1
 690.059570312 399 l 1
49.9033203125 399 m 1
 65.7529296875 443 l 1
 66.9033203125 479 l 1
 66.9033203125 188 l 1
 63.4033203125 228 l 1
 49.9033203125 268 l 1
 49.9033203125 399 l 1
670.659179688 336.193359375 m 1
 667.358398438 527.896484375 554.447265625 642.516601562 368.903320312 642.516601562 c 0
 193.18359375 642.516601562 70.783203125 517.369140625 69.3037109375 336.193359375 c 1
 670.659179688 336.193359375 l 1
70.4443359375 302.903320312 m 1
 83.4833984375 136.076171875 203.87109375 23.2900390625 368.903320312 23.2900390625 c 0
 455.838867188 23.2900390625 531.048828125 51.63671875 584.752929688 104.642578125 c 1
 610.4453125 82.091796875 l 1
 550.68359375 22.1181640625 466.444335938 -10 368.903320312 -10 c 0
 172.533203125 -10 36 130.634765625 36 332.903320312 c 0
 36 535.69140625 172.028320312 675.806640625 368.903320312 675.806640625 c 0
 585.21484375 675.806640625 723.107421875 521.344726562 701.806640625 302.903320312 c 1
 70.4443359375 302.903320312 l 1
EndSplineSet
EndChar

StartChar: braceleft
Encoding: 123 123 96
Width: 284
Flags: HW
LayerCount: 2
Fore
SplineSet
171 326.193359375 m 1
 171 292.903320312 l 1
 41 292.903320312 l 1
 41 326.193359375 l 5
 171 326.193359375 l 1
243.903320312 -71.7099609375 m 1
 233.903320312 -100 l 1
 -35.0244140625 -40 151 98.2109375 151 307.903320312 c 0
 151 517.59765625 -35.025390625 655.806640625 233.903320312 715.806640625 c 1
 243.903320312 687.516601562 l 1
 4.8359375 627.516601562 179.290039062 527.59765625 179.290039062 307.903320312 c 0
 179.290039062 88.2099609375 4.8369140625 -11.7099609375 243.903320312 -71.7099609375 c 1
EndSplineSet
EndChar

StartChar: braceright
Encoding: 125 125 97
Width: 284
Flags: HW
LayerCount: 2
Fore
SplineSet
113.903320312 326.193359375 m 1
 243.903320312 326.193359375 l 1
 243.903320312 292.903320312 l 1
 113.903320312 292.903320312 l 1
 113.903320312 326.193359375 l 1
41 -71.7099609375 m 1
 280.06640625 -11.7099609375 105.61328125 88.2099609375 105.61328125 307.903320312 c 0
 105.61328125 527.59765625 280.067382812 627.516601562 41 687.516601562 c 1
 51 715.806640625 l 1
 319.928710938 655.806640625 133.903320312 517.59765625 133.903320312 307.903320312 c 0
 133.903320312 98.2109375 319.927734375 -40 51 -100 c 1
 41 -71.7099609375 l 1
EndSplineSet
EndChar

StartChar: asciitilde
Encoding: 126 126 98
Width: 321
Flags: HW
LayerCount: 2
Fore
SplineSet
270 342.903320312 m 5
 280 309.61328125 l 5
 156 259.61328125 153 359.61328125 41 309.61328125 c 5
 31 342.903320312 l 5
 174 392.903320312 163 292.903320312 270 342.903320312 c 5
EndSplineSet
EndChar

StartChar: exclamdown
Encoding: 161 161 99
Width: 148
Flags: HW
LayerCount: 2
Fore
SplineSet
107.578125 437.065429688 m 4
 107.578125 417.217773438 92.6396484375 401.059570312 74.2890625 401.059570312 c 4
 55.9384765625 401.059570312 41 417.217773438 41 437.065429688 c 4
 41 456.909179688 55.9365234375 473.059570312 74.2890625 473.059570312 c 4
 92.6416015625 473.059570312 107.578125 456.909179688 107.578125 437.065429688 c 4
90.7890625 -202.940429688 m 5
 57.5 -202.940429688 l 5
 57.5 253.059570312 l 5
 90.7890625 253.059570312 l 5
 90.7890625 -202.940429688 l 5
EndSplineSet
EndChar

StartChar: questiondown
Encoding: 191 191 100
Width: 473
Flags: HW
LayerCount: 2
Fore
SplineSet
49.9033203125 -87.82421875 m 5
 49.9033203125 -7.7783203125 l 5
 63.4033203125 13.6103515625 l 5
 66.9033203125 34.9990234375 l 5
 66.9033203125 -130.600585938 l 5
 65.7529296875 -111.3515625 l 5
 49.9033203125 -87.82421875 l 5
312.918945312 437.065429688 m 4
 312.918945312 417.217773438 297.98046875 401.059570312 279.629882812 401.059570312 c 4
 261.279296875 401.059570312 246.340820312 417.217773438 246.340820312 437.065429688 c 4
 246.340820312 456.909179688 261.27734375 473.059570312 279.629882812 473.059570312 c 4
 297.982421875 473.059570312 312.918945312 456.909179688 312.918945312 437.065429688 c 4
262.840820312 253.059570312 m 5
 296.129882812 258.059570312 l 5
 316.129882812 124.349609375 69.2900390625 94.49609375 69.2900390625 -44.84375 c 4
 69.2900390625 -126.895507812 143.327148438 -179.45703125 258.903320312 -179.45703125 c 4
 318.176757812 -179.45703125 384.733398438 -164.358398438 419.5859375 -143.006835938 c 5
 432.209960938 -171.041015625 l 5
 396.6171875 -195.471679688 324.831054688 -212.747070312 258.903320312 -212.747070312 c 4
 123.354492188 -212.747070312 36 -146.946289062 36 -44.84375 c 4
 36 115.016601562 282.840820312 149.955078125 262.840820312 253.059570312 c 5
EndSplineSet
EndChar

StartChar: numbersign
Encoding: 35 35 101
Width: 592
Flags: HW
LayerCount: 2
Fore
SplineSet
531.979492188 233.059570312 m 1
 531.979492188 199.76953125 l 1
 41 199.76953125 l 1
 41 233.059570312 l 1
 531.979492188 233.059570312 l 1
551.979492188 483.059570312 m 1
 551.979492188 449.76953125 l 1
 71 449.76953125 l 1
 71 483.059570312 l 1
 551.979492188 483.059570312 l 1
452 666 m 1
 485.2890625 666 l 1
 395.2890625 0 l 1
 362 0 l 1
 452 666 l 1
202 666 m 1
 235.2890625 666 l 1
 145.2890625 0 l 1
 112 0 l 1
 202 666 l 1
EndSplineSet
EndChar

StartChar: quotedbl
Encoding: 34 34 102
Width: 248
Flags: HW
LayerCount: 2
Fore
SplineSet
157.7890625 666 m 5
 191.078125 666 l 5
 191.078125 500 l 5
 157.7890625 500 l 5
 157.7890625 666 l 5
57.7890625 666 m 1
 91.078125 666 l 1
 91.078125 500 l 1
 57.7890625 500 l 1
 57.7890625 666 l 1
EndSplineSet
EndChar

StartChar: quotesingle
Encoding: 39 39 103
Width: 148
Flags: HW
LayerCount: 2
Fore
SplineSet
57.7890625 666 m 1
 91.078125 666 l 1
 91.078125 500 l 5
 57.7890625 500 l 5
 57.7890625 666 l 1
EndSplineSet
EndChar

StartChar: asterisk
Encoding: 42 42 104
Width: 148
Flags: HW
LayerCount: 2
Fore
SplineSet
151.49609375 500.3984375 m 5
 -24.16796875 636.0625 l 5
 -2.62890625 661.6015625 l 5
 173.03515625 525.9375 l 5
 151.49609375 500.3984375 l 5
151.49609375 663.6015625 m 5
 173.03515625 638.0625 l 5
 -2.62890625 502.3984375 l 5
 -24.16796875 527.9375 l 5
 151.49609375 663.6015625 l 5
90.078125 479 m 1
 56.7890625 479 l 1
 56.7890625 685 l 1
 90.078125 685 l 1
 90.078125 479 l 1
EndSplineSet
EndChar

StartChar: less
Encoding: 60 60 105
Width: 401
Flags: HW
LayerCount: 2
Fore
SplineSet
360 242.903320312 m 5
 360 209.61328125 l 5
 41 299.61328125 l 1
 41 332.903320312 l 1
 360 242.903320312 l 5
360 422.903320312 m 1
 360 389.61328125 l 1
 41 299.61328125 l 1
 41 332.903320312 l 1
 360 422.903320312 l 1
EndSplineSet
EndChar

StartChar: greater
Encoding: 62 62 106
Width: 401
Flags: HW
LayerCount: 2
Fore
SplineSet
41 389.61328125 m 5
 41 422.903320312 l 5
 360 332.903320312 l 1
 360 299.61328125 l 1
 41 389.61328125 l 5
41 209.61328125 m 1
 41 242.903320312 l 1
 360 332.903320312 l 1
 360 299.61328125 l 1
 41 209.61328125 l 1
EndSplineSet
EndChar

StartChar: uni00AD
Encoding: 173 173 107
Width: 321
Flags: HW
LayerCount: 2
Fore
SplineSet
280 222.903320312 m 5
 280 189.61328125 l 5
 41 189.61328125 l 5
 41 222.903320312 l 5
 280 222.903320312 l 5
EndSplineSet
EndChar

StartChar: logicalnot
Encoding: 172 172 108
Width: 321
Flags: HW
LayerCount: 2
Fore
SplineSet
246.7109375 212.903320312 m 1
 280 222.903320312 l 1
 280 123.903320312 l 1
 246.7109375 123.903320312 l 1
 246.7109375 212.903320312 l 1
280 222.903320312 m 1
 270 189.61328125 l 1
 41 189.61328125 l 1
 41 222.903320312 l 1
 280 222.903320312 l 1
EndSplineSet
EndChar

StartChar: guillemotleft
Encoding: 171 171 109
Width: 391
Flags: HW
LayerCount: 2
Fore
SplineSet
350 242.903320312 m 5
 350 209.61328125 l 5
 201 299.61328125 l 5
 201 332.903320312 l 5
 350 242.903320312 l 5
350 422.903320312 m 5
 350 389.61328125 l 5
 201 299.61328125 l 5
 201 332.903320312 l 5
 350 422.903320312 l 5
190 242.903320312 m 1
 190 209.61328125 l 1
 41 299.61328125 l 1
 41 332.903320312 l 1
 190 242.903320312 l 1
190 422.903320312 m 1
 190 389.61328125 l 1
 41 299.61328125 l 1
 41 332.903320312 l 1
 190 422.903320312 l 1
EndSplineSet
EndChar

StartChar: guillemotright
Encoding: 187 187 110
Width: 391
Flags: HW
LayerCount: 2
Fore
SplineSet
41 389.61328125 m 5
 41 422.903320312 l 5
 190 332.903320312 l 5
 190 299.61328125 l 5
 41 389.61328125 l 5
41 209.61328125 m 5
 41 242.903320312 l 5
 190 332.903320312 l 5
 190 299.61328125 l 5
 41 209.61328125 l 5
201 389.61328125 m 1
 201 422.903320312 l 1
 350 332.903320312 l 1
 350 299.61328125 l 1
 201 389.61328125 l 1
201 209.61328125 m 1
 201 242.903320312 l 1
 350 332.903320312 l 1
 350 299.61328125 l 1
 201 209.61328125 l 1
EndSplineSet
EndChar

StartChar: cent
Encoding: 162 162 111
Width: 488
VWidth: 699
Flags: HW
LayerCount: 2
Fore
SplineSet
251 616 m 5
 284.2890625 616 l 5
 284.2890625 -50 l 5
 251 -50 l 5
 251 616 l 5
45.732421875 339.299804688 m 5
 66.83203125 366.477539062 l 5
 67.5986328125 390.493164062 l 5
 67.5986328125 196.3671875 l 5
 65.263671875 223.05078125 l 5
 45.732421875 247.599609375 l 5
 45.732421875 339.299804688 l 5
36 293.032226562 m 4
 36 434.619140625 131.571289062 533.059570312 269.032226562 533.059570312 c 4
 342.278320312 533.059570312 405.427734375 505.188476562 447.88671875 454.122070312 c 5
 420.366210938 433.984375 l 5
 383.911132812 476.462890625 330.59765625 499.575195312 269.063476562 499.575195312 c 4
 151.349609375 499.575195312 69.1904296875 414.673828125 69.1904296875 293.032226562 c 4
 69.1904296875 171.390625 151.350585938 86.4892578125 269.063476562 86.4892578125 c 4
 330.59765625 86.4892578125 383.911132812 109.6015625 420.365234375 152.080078125 c 5
 447.887695312 131.942382812 l 5
 405.428710938 80.873046875 342.278320312 53 269.032226562 53 c 4
 131.573242188 53 36 151.444335938 36 293.032226562 c 4
EndSplineSet
EndChar

StartChar: quoteleft
Encoding: 8216 8216 112
Width: 148
Flags: HW
LayerCount: 2
Fore
SplineSet
103.8671875 576 m 4
 103.8671875 556.15234375 88.9287109375 539.994140625 70.578125 539.994140625 c 4
 52.2275390625 539.994140625 37.2890625 556.15234375 37.2890625 576 c 4
 37.2890625 608.994140625 48.8671875 637.994140625 79.2890625 672 c 5
 107.578125 662 l 5
 107.578125 662 86.87890625 642.994140625 86.87890625 623.34765625 c 4
 86.87890625 604.666992188 103.8671875 603.515625 103.8671875 576 c 4
EndSplineSet
EndChar

StartChar: quoteright
Encoding: 8217 8217 113
Width: 148
Flags: HW
LayerCount: 2
Fore
SplineSet
41 635.994140625 m 4
 41 655.841796875 55.9384765625 672 74.2890625 672 c 4
 92.6396484375 672 107.578125 655.841796875 107.578125 635.994140625 c 4
 107.578125 603 96 574 65.578125 539.994140625 c 5
 37.2890625 549.994140625 l 5
 37.2890625 549.994140625 57.98828125 569 57.98828125 588.646484375 c 4
 57.98828125 607.327148438 41 608.478515625 41 635.994140625 c 4
EndSplineSet
EndChar

StartChar: quotedblleft
Encoding: 8220 8220 114
Width: 248
Flags: HW
LayerCount: 2
Fore
SplineSet
203.8671875 576 m 4
 203.8671875 556.15234375 188.928710938 539.994140625 170.578125 539.994140625 c 4
 152.227539062 539.994140625 137.2890625 556.15234375 137.2890625 576 c 4
 137.2890625 608.994140625 148.8671875 637.994140625 179.2890625 672 c 5
 207.578125 662 l 5
 207.578125 662 186.87890625 642.994140625 186.87890625 623.34765625 c 4
 186.87890625 604.666992188 203.8671875 603.515625 203.8671875 576 c 4
103.8671875 576 m 0
 103.8671875 556.15234375 88.9287109375 539.994140625 70.578125 539.994140625 c 0
 52.2275390625 539.994140625 37.2890625 556.15234375 37.2890625 576 c 0
 37.2890625 608.994140625 48.8671875 637.994140625 79.2890625 672 c 1
 107.578125 662 l 1
 107.578125 662 86.87890625 642.994140625 86.87890625 623.34765625 c 0
 86.87890625 604.666992188 103.8671875 603.515625 103.8671875 576 c 0
EndSplineSet
EndChar

StartChar: quotedblright
Encoding: 8221 8221 115
Width: 248
Flags: HW
LayerCount: 2
Fore
SplineSet
41 635.994140625 m 4
 41 655.841796875 55.9384765625 672 74.2890625 672 c 4
 92.6396484375 672 107.578125 655.841796875 107.578125 635.994140625 c 4
 107.578125 603 96 574 65.578125 539.994140625 c 5
 37.2890625 549.994140625 l 5
 37.2890625 549.994140625 57.98828125 569 57.98828125 588.646484375 c 4
 57.98828125 607.327148438 41 608.478515625 41 635.994140625 c 4
141 635.994140625 m 0
 141 655.841796875 155.938476562 672 174.2890625 672 c 0
 192.639648438 672 207.578125 655.841796875 207.578125 635.994140625 c 0
 207.578125 603 196 574 165.578125 539.994140625 c 1
 137.2890625 549.994140625 l 1
 137.2890625 549.994140625 157.98828125 569 157.98828125 588.646484375 c 0
 157.98828125 607.327148438 141 608.478515625 141 635.994140625 c 0
EndSplineSet
EndChar

